M48
;Layer_Color=9474304
;FILE_FORMAT=2:5
INCH,LZ
;TYPE=PLATED
T1F00S00C0.02800
T2F00S00C0.03543
T3F00S00C0.05118
T4F00S00C0.11811
%
T01
X00485Y0219
X00465Y0315
X0067Y0306
X00575Y0219
T02
X0013Y00485
X0023
X0193
X0203
Y00585
Y00685
Y00785
Y00885
Y00985
Y01085
Y01185
Y01285
Y01385
Y01485
Y01585
Y01685
Y01785
Y01885
Y01985
Y02085
X0193
Y01985
Y01885
Y01785
Y01685
Y01585
Y01485
Y01385
Y01285
Y01185
Y01085
Y00985
Y00885
Y00785
Y00685
Y00585
X0023
X0013
Y00685
X0023
Y00785
X0013
Y00885
X0023
Y00985
X0013
Y01085
X0023
Y01185
X0013
Y01285
X0023
Y01385
X0013
Y01485
X0023
Y01585
X0013
Y01685
X0023
Y01785
X0013
Y01885
X0023
Y02085
X0013
Y02185
X0023
Y02285
X0013
Y02385
X0023
Y02485
X0013
Y02585
X0023
Y02685
X0013
Y02785
X0023
X0043Y0338
X0053
X0063
X0073
X0083
X0093
X0103
X0113
X0123
X0133
X0143
X0153
X0163
X0173
X0193Y03185
X0203
Y03085
X0193
Y02985
X0203
Y02885
X0193
Y02785
X0203
Y02685
X0193
Y02585
X0203
Y02485
X0193
Y02385
X0203
Y02285
X0193
T03
X00175Y0305658
Y0325342
T04
X00215Y0019
X01945Y00185
M30
