G04*
G04 #@! TF.GenerationSoftware,Altium Limited,Altium Designer,20.0.13 (296)*
G04*
G04 Layer_Physical_Order=2*
G04 Layer_Color=16711680*
%FSLAX25Y25*%
%MOIN*%
G70*
G01*
G75*
%ADD24C,0.01600*%
%ADD25C,0.01787*%
%ADD26C,0.05906*%
%ADD27R,0.05906X0.05906*%
%ADD28R,0.05906X0.05906*%
%ADD29R,0.07677X0.07677*%
%ADD30C,0.07677*%
%ADD31C,0.31496*%
%ADD32C,0.05000*%
G36*
X115376Y343233D02*
X114144Y342001D01*
X114079Y342027D01*
X113000Y342169D01*
X111921Y342027D01*
X110915Y341611D01*
X110052Y340948D01*
X109389Y340085D01*
X108973Y339079D01*
X108830Y338000D01*
X108973Y336921D01*
X109389Y335915D01*
X109681Y335535D01*
X109460Y335086D01*
X106540D01*
X106319Y335535D01*
X106611Y335915D01*
X107027Y336921D01*
X107169Y338000D01*
X107027Y339079D01*
X106611Y340085D01*
X105948Y340948D01*
X105085Y341611D01*
X104079Y342027D01*
X103000Y342169D01*
X101921Y342027D01*
X101856Y342001D01*
X100624Y343233D01*
X100815Y343695D01*
X115185D01*
X115376Y343233D01*
D02*
G37*
G36*
X47814D02*
X46714Y342134D01*
X38866D01*
Y336723D01*
X25529Y323386D01*
X25529Y323386D01*
X22982Y320838D01*
X22520Y321030D01*
Y330362D01*
X15551D01*
X15359Y330824D01*
X28230Y343695D01*
X47622D01*
X47814Y343233D01*
D02*
G37*
G36*
X12480Y327292D02*
Y320323D01*
X21771D01*
X21966Y319823D01*
X18422Y316278D01*
X13938D01*
X13164Y316124D01*
X12509Y315687D01*
X4863Y308040D01*
X4401Y308232D01*
Y319866D01*
X12018Y327483D01*
X12480Y327292D01*
D02*
G37*
G36*
X50915Y334389D02*
X51921Y333973D01*
X53000Y333830D01*
X54079Y333973D01*
X54144Y333999D01*
X174480Y213663D01*
Y158022D01*
X174634Y157249D01*
X175072Y156594D01*
X189528Y142138D01*
X189849Y141923D01*
X189900Y141804D01*
X189923Y141281D01*
X189389Y140585D01*
X188973Y139579D01*
X188830Y138500D01*
X188973Y137421D01*
X189389Y136415D01*
X190052Y135552D01*
X190915Y134889D01*
X191921Y134473D01*
X193000Y134330D01*
X194079Y134473D01*
X195085Y134889D01*
X195948Y135552D01*
X196611Y136415D01*
X197027Y137421D01*
X197169Y138500D01*
X197027Y139579D01*
X196611Y140585D01*
X196308Y140980D01*
X196554Y141480D01*
X199446D01*
X199692Y140980D01*
X199389Y140585D01*
X198973Y139579D01*
X198830Y138500D01*
X198973Y137421D01*
X199389Y136415D01*
X200052Y135552D01*
X200915Y134889D01*
X201921Y134473D01*
X203000Y134330D01*
X204079Y134473D01*
X205085Y134889D01*
X205948Y135552D01*
X206611Y136415D01*
X207027Y137421D01*
X207170Y138500D01*
X207027Y139579D01*
X206611Y140585D01*
X206100Y141251D01*
X206130Y141811D01*
X206176Y141903D01*
X206428Y142072D01*
X213428Y149072D01*
X213866Y149727D01*
X213888Y149836D01*
X214388Y149787D01*
Y49500D01*
Y1612D01*
X198937D01*
X198888Y2112D01*
X198891Y2113D01*
X200992Y2826D01*
X202983Y3808D01*
X204828Y5040D01*
X206496Y6504D01*
X207960Y8172D01*
X209192Y10017D01*
X210174Y12008D01*
X210887Y14109D01*
X211320Y16286D01*
X211466Y18500D01*
X211320Y20714D01*
X210887Y22891D01*
X210174Y24992D01*
X209192Y26983D01*
X207960Y28828D01*
X206496Y30496D01*
X204828Y31960D01*
X202983Y33193D01*
X200992Y34174D01*
X198891Y34887D01*
X196714Y35320D01*
X194500Y35465D01*
X192286Y35320D01*
X190109Y34887D01*
X188008Y34174D01*
X186017Y33193D01*
X184172Y31960D01*
X182504Y30496D01*
X181040Y28828D01*
X179807Y26983D01*
X178826Y24992D01*
X178113Y22891D01*
X177680Y20714D01*
X177534Y18500D01*
X177680Y16286D01*
X178113Y14109D01*
X178826Y12008D01*
X179807Y10017D01*
X181040Y8172D01*
X182504Y6504D01*
X184172Y5040D01*
X186017Y3808D01*
X188008Y2826D01*
X190109Y2113D01*
X190112Y2112D01*
X190062Y1612D01*
X22699D01*
X22683Y2112D01*
X23714Y2180D01*
X25891Y2613D01*
X27992Y3326D01*
X29983Y4307D01*
X31828Y5540D01*
X33496Y7004D01*
X34960Y8672D01*
X36193Y10517D01*
X37174Y12508D01*
X37887Y14609D01*
X38320Y16786D01*
X38465Y19000D01*
X38320Y21214D01*
X37887Y23391D01*
X37174Y25492D01*
X36193Y27483D01*
X34960Y29328D01*
X33496Y30996D01*
X31828Y32460D01*
X29983Y33692D01*
X27992Y34674D01*
X25891Y35387D01*
X23714Y35820D01*
X21500Y35965D01*
X19286Y35820D01*
X17109Y35387D01*
X15008Y34674D01*
X13017Y33692D01*
X11172Y32460D01*
X9504Y30996D01*
X8040Y29328D01*
X6808Y27483D01*
X5826Y25492D01*
X5113Y23391D01*
X4680Y21214D01*
X4535Y19000D01*
X4680Y16786D01*
X5113Y14609D01*
X5826Y12508D01*
X6808Y10517D01*
X8040Y8672D01*
X9504Y7004D01*
X11172Y5540D01*
X13017Y4307D01*
X15008Y3326D01*
X17109Y2613D01*
X19286Y2180D01*
X20317Y2112D01*
X20301Y1612D01*
X1612D01*
Y176378D01*
X2074Y176569D01*
X8999Y169644D01*
X8973Y169579D01*
X8830Y168500D01*
X8973Y167421D01*
X9389Y166415D01*
X10052Y165552D01*
X10915Y164889D01*
X11921Y164473D01*
X13000Y164330D01*
X14079Y164473D01*
X15085Y164889D01*
X15948Y165552D01*
X16611Y166415D01*
X17027Y167421D01*
X17169Y168500D01*
X17027Y169579D01*
X16611Y170585D01*
X15948Y171448D01*
X15085Y172111D01*
X14079Y172527D01*
X13000Y172669D01*
X11921Y172527D01*
X11856Y172501D01*
X4401Y179956D01*
Y183589D01*
X4863Y183781D01*
X8999Y179644D01*
X8973Y179579D01*
X8830Y178500D01*
X8973Y177421D01*
X9389Y176415D01*
X10052Y175552D01*
X10915Y174889D01*
X11921Y174473D01*
X13000Y174330D01*
X14079Y174473D01*
X15085Y174889D01*
X15948Y175552D01*
X16611Y176415D01*
X17027Y177421D01*
X17169Y178500D01*
X17027Y179579D01*
X16611Y180585D01*
X15948Y181448D01*
X15085Y182111D01*
X14079Y182527D01*
X13000Y182669D01*
X11921Y182527D01*
X11856Y182501D01*
X10452Y183904D01*
X10644Y184366D01*
X17134D01*
Y192634D01*
X11723D01*
X10020Y194337D01*
Y204946D01*
X10520Y205192D01*
X10915Y204889D01*
X11921Y204473D01*
X13000Y204330D01*
X14079Y204473D01*
X15085Y204889D01*
X15948Y205552D01*
X16611Y206415D01*
X17027Y207421D01*
X17169Y208500D01*
X17027Y209579D01*
X16611Y210585D01*
X15948Y211448D01*
X15085Y212111D01*
X14079Y212527D01*
X13000Y212669D01*
X11921Y212527D01*
X10915Y212111D01*
X10520Y211808D01*
X10020Y212054D01*
Y214946D01*
X10520Y215192D01*
X10915Y214889D01*
X11921Y214473D01*
X13000Y214331D01*
X14079Y214473D01*
X15085Y214889D01*
X15948Y215552D01*
X16611Y216415D01*
X17027Y217421D01*
X17169Y218500D01*
X17027Y219579D01*
X16611Y220585D01*
X15948Y221448D01*
X15085Y222111D01*
X14079Y222527D01*
X13000Y222670D01*
X11921Y222527D01*
X10915Y222111D01*
X10520Y221808D01*
X10020Y222054D01*
Y224946D01*
X10520Y225192D01*
X10915Y224889D01*
X11921Y224473D01*
X13000Y224330D01*
X14079Y224473D01*
X15085Y224889D01*
X15948Y225552D01*
X16611Y226415D01*
X17027Y227421D01*
X17169Y228500D01*
X17027Y229579D01*
X16611Y230585D01*
X15948Y231448D01*
X15085Y232111D01*
X14079Y232527D01*
X13000Y232669D01*
X11921Y232527D01*
X10915Y232111D01*
X10520Y231808D01*
X10020Y232054D01*
Y234946D01*
X10520Y235192D01*
X10915Y234889D01*
X11921Y234473D01*
X13000Y234331D01*
X14079Y234473D01*
X15085Y234889D01*
X15948Y235552D01*
X16611Y236415D01*
X17027Y237421D01*
X17169Y238500D01*
X17027Y239579D01*
X16611Y240585D01*
X15948Y241448D01*
X15085Y242111D01*
X14079Y242527D01*
X13000Y242670D01*
X11921Y242527D01*
X10915Y242111D01*
X10520Y241808D01*
X10020Y242054D01*
Y244946D01*
X10520Y245192D01*
X10915Y244889D01*
X11921Y244473D01*
X13000Y244331D01*
X14079Y244473D01*
X15085Y244889D01*
X15948Y245552D01*
X16611Y246415D01*
X17027Y247421D01*
X17169Y248500D01*
X17027Y249579D01*
X16611Y250585D01*
X15948Y251448D01*
X15085Y252111D01*
X14079Y252527D01*
X13000Y252670D01*
X11921Y252527D01*
X10915Y252111D01*
X10520Y251808D01*
X10020Y252054D01*
Y254946D01*
X10520Y255192D01*
X10915Y254889D01*
X11921Y254473D01*
X13000Y254330D01*
X14079Y254473D01*
X15085Y254889D01*
X15948Y255552D01*
X16611Y256415D01*
X17027Y257421D01*
X17169Y258500D01*
X17027Y259579D01*
X16611Y260585D01*
X15948Y261448D01*
X15085Y262111D01*
X14079Y262527D01*
X13000Y262669D01*
X11921Y262527D01*
X10915Y262111D01*
X10520Y261808D01*
X10020Y262054D01*
Y264946D01*
X10520Y265192D01*
X10915Y264889D01*
X11921Y264473D01*
X13000Y264331D01*
X14079Y264473D01*
X15085Y264889D01*
X15948Y265552D01*
X16611Y266415D01*
X17027Y267421D01*
X17169Y268500D01*
X17027Y269579D01*
X16611Y270585D01*
X15948Y271448D01*
X15085Y272111D01*
X14079Y272527D01*
X13000Y272670D01*
X11921Y272527D01*
X10915Y272111D01*
X10520Y271808D01*
X10020Y272054D01*
Y274946D01*
X10520Y275192D01*
X10915Y274889D01*
X11921Y274473D01*
X13000Y274330D01*
X14079Y274473D01*
X15085Y274889D01*
X15948Y275552D01*
X16611Y276415D01*
X17027Y277421D01*
X17169Y278500D01*
X17027Y279579D01*
X16611Y280585D01*
X15948Y281448D01*
X15085Y282111D01*
X14079Y282527D01*
X13000Y282669D01*
X11921Y282527D01*
X10915Y282111D01*
X10520Y281808D01*
X10020Y282054D01*
Y303551D01*
X11955Y305486D01*
X12483Y305307D01*
X12609Y304347D01*
X13115Y303126D01*
X13920Y302077D01*
X14968Y301273D01*
X16190Y300767D01*
X17500Y300594D01*
X18810Y300767D01*
X20031Y301273D01*
X21080Y302077D01*
X21885Y303126D01*
X22390Y304347D01*
X22563Y305658D01*
X22390Y306968D01*
X21885Y308189D01*
X21295Y308957D01*
X21542Y309457D01*
X22977D01*
X23750Y309611D01*
X24406Y310049D01*
X45200Y330843D01*
X46571D01*
X47344Y330997D01*
X47999Y331435D01*
X49428Y332864D01*
X49866Y333520D01*
X50020Y334293D01*
Y334446D01*
X50520Y334692D01*
X50915Y334389D01*
D02*
G37*
G36*
X189743Y281046D02*
X189389Y280585D01*
X188973Y279579D01*
X188830Y278500D01*
X188973Y277421D01*
X189389Y276415D01*
X189681Y276034D01*
X189460Y275586D01*
X186770D01*
X181272Y281084D01*
X181464Y281546D01*
X189497D01*
X189743Y281046D01*
D02*
G37*
G36*
X214388Y347500D02*
Y180213D01*
X213888Y180164D01*
X213866Y180273D01*
X213428Y180928D01*
X207001Y187356D01*
X207027Y187421D01*
X207170Y188500D01*
X207027Y189579D01*
X206611Y190585D01*
X205948Y191448D01*
X205085Y192111D01*
X204079Y192527D01*
X203000Y192669D01*
X201921Y192527D01*
X200915Y192111D01*
X200454Y191757D01*
X199954Y192003D01*
Y194997D01*
X200454Y195243D01*
X200915Y194889D01*
X201921Y194473D01*
X203000Y194331D01*
X204079Y194473D01*
X205085Y194889D01*
X205948Y195552D01*
X206611Y196415D01*
X207027Y197421D01*
X207170Y198500D01*
X207027Y199579D01*
X206611Y200585D01*
X205948Y201448D01*
X205085Y202111D01*
X204079Y202527D01*
X203000Y202670D01*
X201921Y202527D01*
X200915Y202111D01*
X200454Y201757D01*
X199954Y202003D01*
Y204997D01*
X200454Y205243D01*
X200915Y204889D01*
X201921Y204473D01*
X203000Y204330D01*
X204079Y204473D01*
X205085Y204889D01*
X205948Y205552D01*
X206611Y206415D01*
X207027Y207421D01*
X207170Y208500D01*
X207027Y209579D01*
X206611Y210585D01*
X205948Y211448D01*
X205085Y212111D01*
X204079Y212527D01*
X203000Y212669D01*
X201921Y212527D01*
X200915Y212111D01*
X200454Y211757D01*
X199954Y212003D01*
Y212273D01*
X199800Y213046D01*
X199362Y213702D01*
X190086Y222978D01*
Y224960D01*
X190534Y225181D01*
X190915Y224889D01*
X191921Y224473D01*
X193000Y224330D01*
X194079Y224473D01*
X195085Y224889D01*
X195948Y225552D01*
X196611Y226415D01*
X197027Y227421D01*
X197169Y228500D01*
X197027Y229579D01*
X196611Y230585D01*
X195948Y231448D01*
X195085Y232111D01*
X194079Y232527D01*
X193000Y232669D01*
X191921Y232527D01*
X190915Y232111D01*
X190534Y231819D01*
X190086Y232040D01*
Y232934D01*
X189932Y233707D01*
X189494Y234362D01*
X87001Y336856D01*
X87027Y336921D01*
X87169Y338000D01*
X87027Y339079D01*
X86611Y340085D01*
X86319Y340465D01*
X86540Y340914D01*
X89460D01*
X89681Y340465D01*
X89389Y340085D01*
X88973Y339079D01*
X88831Y338000D01*
X88973Y336921D01*
X89389Y335915D01*
X90052Y335052D01*
X90915Y334389D01*
X91921Y333973D01*
X93000Y333830D01*
X94079Y333973D01*
X94144Y333999D01*
X96506Y331638D01*
X97161Y331200D01*
X97934Y331046D01*
X120620D01*
X189528Y262138D01*
X189849Y261923D01*
X189900Y261804D01*
X189923Y261281D01*
X189389Y260585D01*
X188973Y259579D01*
X188830Y258500D01*
X188973Y257421D01*
X189389Y256415D01*
X190052Y255552D01*
X190915Y254889D01*
X191921Y254473D01*
X193000Y254330D01*
X194079Y254473D01*
X195085Y254889D01*
X195948Y255552D01*
X196611Y256415D01*
X197027Y257421D01*
X197169Y258500D01*
X197027Y259579D01*
X196611Y260585D01*
X196257Y261046D01*
X196503Y261546D01*
X198066D01*
X198839Y261700D01*
X199494Y262138D01*
X201856Y264499D01*
X201921Y264473D01*
X203000Y264331D01*
X204079Y264473D01*
X205085Y264889D01*
X205948Y265552D01*
X206007Y265628D01*
X206480Y265467D01*
Y264837D01*
X204144Y262501D01*
X204079Y262527D01*
X203000Y262669D01*
X201921Y262527D01*
X200915Y262111D01*
X200052Y261448D01*
X199389Y260585D01*
X198973Y259579D01*
X198830Y258500D01*
X198973Y257421D01*
X199389Y256415D01*
X200052Y255552D01*
X200915Y254889D01*
X201921Y254473D01*
X203000Y254330D01*
X204079Y254473D01*
X205085Y254889D01*
X205948Y255552D01*
X206611Y256415D01*
X207027Y257421D01*
X207170Y258500D01*
X207027Y259579D01*
X207001Y259644D01*
X209928Y262572D01*
X210366Y263227D01*
X210520Y264000D01*
Y269977D01*
X210366Y270750D01*
X209928Y271406D01*
X206340Y274994D01*
X206139Y275129D01*
X206103Y275754D01*
X206611Y276415D01*
X207027Y277421D01*
X207170Y278500D01*
X207027Y279579D01*
X206611Y280585D01*
X205948Y281448D01*
X205085Y282111D01*
X204079Y282527D01*
X203000Y282669D01*
X201921Y282527D01*
X201856Y282501D01*
X199362Y284994D01*
X198707Y285432D01*
X197934Y285586D01*
X196540D01*
X196319Y286034D01*
X196611Y286415D01*
X197027Y287421D01*
X197169Y288500D01*
X197027Y289579D01*
X196611Y290585D01*
X195948Y291448D01*
X195085Y292111D01*
X194079Y292527D01*
X193000Y292670D01*
X191921Y292527D01*
X190915Y292111D01*
X190052Y291448D01*
X189389Y290585D01*
X188973Y289579D01*
X188830Y288500D01*
X188973Y287421D01*
X189389Y286415D01*
X189681Y286034D01*
X189460Y285586D01*
X181293D01*
X133443Y333436D01*
X133603Y333910D01*
X134079Y333973D01*
X135085Y334389D01*
X135948Y335052D01*
X136611Y335915D01*
X137027Y336921D01*
X137170Y338000D01*
X137027Y339079D01*
X136611Y340085D01*
X135948Y340948D01*
X135085Y341611D01*
X134079Y342027D01*
X133000Y342169D01*
X132644Y342123D01*
X127624Y347143D01*
X126969Y347581D01*
X126196Y347735D01*
X27394D01*
X26621Y347581D01*
X25965Y347143D01*
X2074Y323252D01*
X1612Y323443D01*
Y347500D01*
Y348888D01*
X214388D01*
Y347500D01*
D02*
G37*
G36*
X79681Y340465D02*
X79389Y340085D01*
X78973Y339079D01*
X78830Y338000D01*
X78973Y336921D01*
X79389Y335915D01*
X80052Y335052D01*
X80915Y334389D01*
X81921Y333973D01*
X83000Y333830D01*
X84079Y333973D01*
X84144Y333999D01*
X186046Y232097D01*
Y228518D01*
X185546Y228310D01*
X77001Y336856D01*
X77027Y336921D01*
X77170Y338000D01*
X77027Y339079D01*
X76611Y340085D01*
X76319Y340465D01*
X76540Y340914D01*
X79460D01*
X79681Y340465D01*
D02*
G37*
G36*
X69681D02*
X69389Y340085D01*
X68973Y339079D01*
X68831Y338000D01*
X68973Y336921D01*
X69389Y335915D01*
X70052Y335052D01*
X70915Y334389D01*
X71921Y333973D01*
X73000Y333830D01*
X74079Y333973D01*
X74144Y333999D01*
X182480Y225663D01*
Y222002D01*
X181980Y221851D01*
X181928Y221928D01*
X67001Y336856D01*
X67027Y336921D01*
X67169Y338000D01*
X67027Y339079D01*
X66611Y340085D01*
X66319Y340465D01*
X66540Y340914D01*
X69460D01*
X69681Y340465D01*
D02*
G37*
G36*
X59681D02*
X59389Y340085D01*
X58973Y339079D01*
X58830Y338000D01*
X58973Y336921D01*
X59389Y335915D01*
X60052Y335052D01*
X60915Y334389D01*
X61921Y333973D01*
X63000Y333830D01*
X64079Y333973D01*
X64144Y333999D01*
X178480Y219663D01*
Y216002D01*
X177980Y215851D01*
X177928Y215928D01*
X57001Y336856D01*
X57027Y336921D01*
X57170Y338000D01*
X57027Y339079D01*
X56611Y340085D01*
X56319Y340465D01*
X56540Y340914D01*
X59460D01*
X59681Y340465D01*
D02*
G37*
G36*
X194255Y213096D02*
X194063Y212634D01*
X188866D01*
Y204366D01*
X195914D01*
Y202040D01*
X195466Y201819D01*
X195085Y202111D01*
X194079Y202527D01*
X193000Y202670D01*
X191921Y202527D01*
X190915Y202111D01*
X190052Y201448D01*
X189389Y200585D01*
X188973Y199579D01*
X188830Y198500D01*
X188973Y197421D01*
X189389Y196415D01*
X190052Y195552D01*
X190915Y194889D01*
X191921Y194473D01*
X193000Y194331D01*
X194079Y194473D01*
X195085Y194889D01*
X195466Y195181D01*
X195914Y194960D01*
Y192040D01*
X195466Y191819D01*
X195085Y192111D01*
X194079Y192527D01*
X193000Y192669D01*
X191921Y192527D01*
X190915Y192111D01*
X190052Y191448D01*
X189389Y190585D01*
X188973Y189579D01*
X188830Y188500D01*
X188973Y187421D01*
X189389Y186415D01*
X190052Y185552D01*
X190915Y184889D01*
X191921Y184473D01*
X193000Y184330D01*
X194079Y184473D01*
X195085Y184889D01*
X195466Y185181D01*
X195914Y184960D01*
Y182040D01*
X195466Y181819D01*
X195085Y182111D01*
X194079Y182527D01*
X193000Y182669D01*
X191921Y182527D01*
X190915Y182111D01*
X190052Y181448D01*
X189389Y180585D01*
X188973Y179579D01*
X188910Y179103D01*
X188436Y178943D01*
X186520Y180859D01*
Y220124D01*
X187020Y220331D01*
X194255Y213096D01*
D02*
G37*
G36*
X200915Y184889D02*
X201921Y184473D01*
X203000Y184330D01*
X204079Y184473D01*
X204144Y184499D01*
X209980Y178663D01*
Y175084D01*
X209480Y174876D01*
X207001Y177356D01*
X207027Y177421D01*
X207170Y178500D01*
X207027Y179579D01*
X206611Y180585D01*
X205948Y181448D01*
X205085Y182111D01*
X204079Y182527D01*
X203000Y182669D01*
X201921Y182527D01*
X200915Y182111D01*
X200454Y181757D01*
X199954Y182003D01*
Y184997D01*
X200454Y185243D01*
X200915Y184889D01*
D02*
G37*
G36*
X183072Y178594D02*
X189528Y172138D01*
X189849Y171923D01*
X189900Y171804D01*
X189923Y171281D01*
X189389Y170585D01*
X188973Y169579D01*
X188910Y169103D01*
X188436Y168943D01*
X182520Y174859D01*
Y178520D01*
X183020Y178672D01*
X183072Y178594D01*
D02*
G37*
G36*
X179072Y172594D02*
X189528Y162138D01*
X189849Y161923D01*
X189900Y161804D01*
X189923Y161281D01*
X189389Y160585D01*
X188973Y159579D01*
X188830Y158500D01*
X188973Y157421D01*
X189389Y156415D01*
X190052Y155552D01*
X190915Y154889D01*
X191921Y154473D01*
X193000Y154331D01*
X194079Y154473D01*
X195085Y154889D01*
X195746Y155397D01*
X196372Y155361D01*
X196506Y155160D01*
X199528Y152138D01*
X199849Y151923D01*
X199900Y151804D01*
X199923Y151281D01*
X199389Y150585D01*
X198973Y149579D01*
X198830Y148500D01*
X198973Y147421D01*
X199389Y146415D01*
X199692Y146020D01*
X199446Y145520D01*
X196554D01*
X196308Y146020D01*
X196611Y146415D01*
X197027Y147421D01*
X197169Y148500D01*
X197027Y149579D01*
X196611Y150585D01*
X195948Y151448D01*
X195085Y152111D01*
X194079Y152527D01*
X193000Y152670D01*
X191921Y152527D01*
X190915Y152111D01*
X190052Y151448D01*
X189389Y150585D01*
X188973Y149579D01*
X188910Y149103D01*
X188436Y148943D01*
X178520Y158859D01*
Y172520D01*
X179020Y172672D01*
X179072Y172594D01*
D02*
G37*
%LPC*%
G36*
X67000Y309713D02*
X66039Y309586D01*
X65144Y309215D01*
X64375Y308625D01*
X63785Y307856D01*
X63414Y306961D01*
X63287Y306000D01*
X63387Y305243D01*
X56072Y297928D01*
X55634Y297273D01*
X55480Y296500D01*
Y222090D01*
X54875Y221625D01*
X54285Y220856D01*
X53914Y219961D01*
X53787Y219000D01*
X53914Y218039D01*
X54285Y217144D01*
X54875Y216375D01*
X55644Y215785D01*
X56539Y215414D01*
X57500Y215287D01*
X58461Y215414D01*
X59356Y215785D01*
X60125Y216375D01*
X60715Y217144D01*
X61086Y218039D01*
X61213Y219000D01*
X61086Y219961D01*
X60715Y220856D01*
X60125Y221625D01*
X59520Y222090D01*
Y295663D01*
X66243Y302387D01*
X67000Y302287D01*
X67961Y302414D01*
X68856Y302785D01*
X69625Y303375D01*
X70215Y304144D01*
X70586Y305039D01*
X70713Y306000D01*
X70586Y306961D01*
X70215Y307856D01*
X69625Y308625D01*
X68856Y309215D01*
X67961Y309586D01*
X67000Y309713D01*
D02*
G37*
G36*
X23000Y282669D02*
X21921Y282527D01*
X20915Y282111D01*
X20052Y281448D01*
X19389Y280585D01*
X18973Y279579D01*
X18831Y278500D01*
X18973Y277421D01*
X19389Y276415D01*
X20052Y275552D01*
X20915Y274889D01*
X21921Y274473D01*
X23000Y274330D01*
X24079Y274473D01*
X25085Y274889D01*
X25948Y275552D01*
X26611Y276415D01*
X27027Y277421D01*
X27169Y278500D01*
X27027Y279579D01*
X26611Y280585D01*
X25948Y281448D01*
X25085Y282111D01*
X24079Y282527D01*
X23000Y282669D01*
D02*
G37*
G36*
Y272670D02*
X21921Y272527D01*
X20915Y272111D01*
X20052Y271448D01*
X19389Y270585D01*
X18973Y269579D01*
X18831Y268500D01*
X18973Y267421D01*
X19389Y266415D01*
X20052Y265552D01*
X20915Y264889D01*
X21921Y264473D01*
X23000Y264331D01*
X24079Y264473D01*
X25085Y264889D01*
X25948Y265552D01*
X26611Y266415D01*
X27027Y267421D01*
X27169Y268500D01*
X27027Y269579D01*
X26611Y270585D01*
X25948Y271448D01*
X25085Y272111D01*
X24079Y272527D01*
X23000Y272670D01*
D02*
G37*
G36*
Y262669D02*
X21921Y262527D01*
X20915Y262111D01*
X20052Y261448D01*
X19389Y260585D01*
X18973Y259579D01*
X18831Y258500D01*
X18973Y257421D01*
X19389Y256415D01*
X20052Y255552D01*
X20915Y254889D01*
X21921Y254473D01*
X23000Y254330D01*
X24079Y254473D01*
X25085Y254889D01*
X25948Y255552D01*
X26611Y256415D01*
X27027Y257421D01*
X27169Y258500D01*
X27027Y259579D01*
X26611Y260585D01*
X25948Y261448D01*
X25085Y262111D01*
X24079Y262527D01*
X23000Y262669D01*
D02*
G37*
G36*
Y252670D02*
X21921Y252527D01*
X20915Y252111D01*
X20052Y251448D01*
X19389Y250585D01*
X18973Y249579D01*
X18831Y248500D01*
X18973Y247421D01*
X19389Y246415D01*
X20052Y245552D01*
X20915Y244889D01*
X21921Y244473D01*
X23000Y244331D01*
X24079Y244473D01*
X25085Y244889D01*
X25948Y245552D01*
X26611Y246415D01*
X27027Y247421D01*
X27169Y248500D01*
X27027Y249579D01*
X26611Y250585D01*
X25948Y251448D01*
X25085Y252111D01*
X24079Y252527D01*
X23000Y252670D01*
D02*
G37*
G36*
Y242670D02*
X21921Y242527D01*
X20915Y242111D01*
X20052Y241448D01*
X19389Y240585D01*
X18973Y239579D01*
X18831Y238500D01*
X18973Y237421D01*
X19389Y236415D01*
X20052Y235552D01*
X20915Y234889D01*
X21921Y234473D01*
X23000Y234331D01*
X24079Y234473D01*
X25085Y234889D01*
X25948Y235552D01*
X26611Y236415D01*
X27027Y237421D01*
X27169Y238500D01*
X27027Y239579D01*
X26611Y240585D01*
X25948Y241448D01*
X25085Y242111D01*
X24079Y242527D01*
X23000Y242670D01*
D02*
G37*
G36*
Y232669D02*
X21921Y232527D01*
X20915Y232111D01*
X20052Y231448D01*
X19389Y230585D01*
X18973Y229579D01*
X18831Y228500D01*
X18973Y227421D01*
X19389Y226415D01*
X20052Y225552D01*
X20915Y224889D01*
X21921Y224473D01*
X23000Y224330D01*
X24079Y224473D01*
X25085Y224889D01*
X25948Y225552D01*
X26611Y226415D01*
X27027Y227421D01*
X27169Y228500D01*
X27027Y229579D01*
X26611Y230585D01*
X25948Y231448D01*
X25085Y232111D01*
X24079Y232527D01*
X23000Y232669D01*
D02*
G37*
G36*
X46500Y318713D02*
X45539Y318586D01*
X44644Y318215D01*
X43875Y317625D01*
X43285Y316856D01*
X42914Y315961D01*
X42787Y315000D01*
X42914Y314039D01*
X43285Y313144D01*
X43875Y312375D01*
X44644Y311785D01*
X45539Y311414D01*
X46427Y311297D01*
X46480Y311243D01*
Y222090D01*
X45875Y221625D01*
X45285Y220856D01*
X44914Y219961D01*
X44787Y219000D01*
X44914Y218039D01*
X45285Y217144D01*
X45875Y216375D01*
X46644Y215785D01*
X47539Y215414D01*
X48500Y215287D01*
X49461Y215414D01*
X50356Y215785D01*
X51125Y216375D01*
X51715Y217144D01*
X52086Y218039D01*
X52213Y219000D01*
X52086Y219961D01*
X51715Y220856D01*
X51125Y221625D01*
X50520Y222090D01*
Y312080D01*
X50366Y312853D01*
X49928Y313508D01*
X49885Y313552D01*
X50086Y314039D01*
X50213Y315000D01*
X50086Y315961D01*
X49715Y316856D01*
X49125Y317625D01*
X48356Y318215D01*
X47461Y318586D01*
X46500Y318713D01*
D02*
G37*
G36*
X23000Y222670D02*
X21921Y222527D01*
X20915Y222111D01*
X20052Y221448D01*
X19389Y220585D01*
X18973Y219579D01*
X18831Y218500D01*
X18973Y217421D01*
X19389Y216415D01*
X20052Y215552D01*
X20915Y214889D01*
X21921Y214473D01*
X23000Y214331D01*
X24079Y214473D01*
X25085Y214889D01*
X25948Y215552D01*
X26611Y216415D01*
X27027Y217421D01*
X27169Y218500D01*
X27027Y219579D01*
X26611Y220585D01*
X25948Y221448D01*
X25085Y222111D01*
X24079Y222527D01*
X23000Y222670D01*
D02*
G37*
G36*
X27134Y212634D02*
X18866D01*
Y204366D01*
X27134D01*
Y212634D01*
D02*
G37*
G36*
X23000Y192669D02*
X21921Y192527D01*
X20915Y192111D01*
X20052Y191448D01*
X19389Y190585D01*
X18973Y189579D01*
X18831Y188500D01*
X18973Y187421D01*
X19389Y186415D01*
X20052Y185552D01*
X20915Y184889D01*
X21921Y184473D01*
X23000Y184330D01*
X24079Y184473D01*
X25085Y184889D01*
X25948Y185552D01*
X26611Y186415D01*
X27027Y187421D01*
X27169Y188500D01*
X27027Y189579D01*
X26611Y190585D01*
X25948Y191448D01*
X25085Y192111D01*
X24079Y192527D01*
X23000Y192669D01*
D02*
G37*
G36*
Y182669D02*
X21921Y182527D01*
X20915Y182111D01*
X20052Y181448D01*
X19389Y180585D01*
X18973Y179579D01*
X18831Y178500D01*
X18973Y177421D01*
X19389Y176415D01*
X20052Y175552D01*
X20915Y174889D01*
X21921Y174473D01*
X23000Y174330D01*
X24079Y174473D01*
X25085Y174889D01*
X25948Y175552D01*
X26611Y176415D01*
X27027Y177421D01*
X27169Y178500D01*
X27027Y179579D01*
X26611Y180585D01*
X25948Y181448D01*
X25085Y182111D01*
X24079Y182527D01*
X23000Y182669D01*
D02*
G37*
G36*
Y172669D02*
X21921Y172527D01*
X20915Y172111D01*
X20052Y171448D01*
X19389Y170585D01*
X18973Y169579D01*
X18831Y168500D01*
X18973Y167421D01*
X19389Y166415D01*
X20052Y165552D01*
X20915Y164889D01*
X21921Y164473D01*
X23000Y164330D01*
X24079Y164473D01*
X25085Y164889D01*
X25948Y165552D01*
X26611Y166415D01*
X27027Y167421D01*
X27169Y168500D01*
X27027Y169579D01*
X26611Y170585D01*
X25948Y171448D01*
X25085Y172111D01*
X24079Y172527D01*
X23000Y172669D01*
D02*
G37*
G36*
Y162670D02*
X21921Y162527D01*
X20915Y162111D01*
X20052Y161448D01*
X19389Y160585D01*
X18973Y159579D01*
X18831Y158500D01*
X18973Y157421D01*
X19389Y156415D01*
X20052Y155552D01*
X20915Y154889D01*
X21921Y154473D01*
X23000Y154331D01*
X24079Y154473D01*
X25085Y154889D01*
X25948Y155552D01*
X26611Y156415D01*
X27027Y157421D01*
X27169Y158500D01*
X27027Y159579D01*
X26611Y160585D01*
X25948Y161448D01*
X25085Y162111D01*
X24079Y162527D01*
X23000Y162670D01*
D02*
G37*
G36*
X13000D02*
X11921Y162527D01*
X10915Y162111D01*
X10052Y161448D01*
X9389Y160585D01*
X8973Y159579D01*
X8830Y158500D01*
X8973Y157421D01*
X9389Y156415D01*
X10052Y155552D01*
X10915Y154889D01*
X11921Y154473D01*
X13000Y154331D01*
X14079Y154473D01*
X15085Y154889D01*
X15948Y155552D01*
X16611Y156415D01*
X17027Y157421D01*
X17169Y158500D01*
X17027Y159579D01*
X16611Y160585D01*
X15948Y161448D01*
X15085Y162111D01*
X14079Y162527D01*
X13000Y162670D01*
D02*
G37*
G36*
X23000Y152670D02*
X21921Y152527D01*
X20915Y152111D01*
X20052Y151448D01*
X19389Y150585D01*
X18973Y149579D01*
X18831Y148500D01*
X18973Y147421D01*
X19389Y146415D01*
X20052Y145552D01*
X20915Y144889D01*
X21921Y144473D01*
X23000Y144331D01*
X24079Y144473D01*
X25085Y144889D01*
X25948Y145552D01*
X26611Y146415D01*
X27027Y147421D01*
X27169Y148500D01*
X27027Y149579D01*
X26611Y150585D01*
X25948Y151448D01*
X25085Y152111D01*
X24079Y152527D01*
X23000Y152670D01*
D02*
G37*
G36*
X13000D02*
X11921Y152527D01*
X10915Y152111D01*
X10052Y151448D01*
X9389Y150585D01*
X8973Y149579D01*
X8830Y148500D01*
X8973Y147421D01*
X9389Y146415D01*
X10052Y145552D01*
X10915Y144889D01*
X11921Y144473D01*
X13000Y144331D01*
X14079Y144473D01*
X15085Y144889D01*
X15948Y145552D01*
X16611Y146415D01*
X17027Y147421D01*
X17169Y148500D01*
X17027Y149579D01*
X16611Y150585D01*
X15948Y151448D01*
X15085Y152111D01*
X14079Y152527D01*
X13000Y152670D01*
D02*
G37*
G36*
X23000Y142669D02*
X21921Y142527D01*
X20915Y142111D01*
X20052Y141448D01*
X19389Y140585D01*
X18973Y139579D01*
X18831Y138500D01*
X18973Y137421D01*
X19389Y136415D01*
X20052Y135552D01*
X20915Y134889D01*
X21921Y134473D01*
X23000Y134330D01*
X24079Y134473D01*
X25085Y134889D01*
X25948Y135552D01*
X26611Y136415D01*
X27027Y137421D01*
X27169Y138500D01*
X27027Y139579D01*
X26611Y140585D01*
X25948Y141448D01*
X25085Y142111D01*
X24079Y142527D01*
X23000Y142669D01*
D02*
G37*
G36*
X13000D02*
X11921Y142527D01*
X10915Y142111D01*
X10052Y141448D01*
X9389Y140585D01*
X8973Y139579D01*
X8830Y138500D01*
X8973Y137421D01*
X9389Y136415D01*
X10052Y135552D01*
X10915Y134889D01*
X11921Y134473D01*
X13000Y134330D01*
X14079Y134473D01*
X15085Y134889D01*
X15948Y135552D01*
X16611Y136415D01*
X17027Y137421D01*
X17169Y138500D01*
X17027Y139579D01*
X16611Y140585D01*
X15948Y141448D01*
X15085Y142111D01*
X14079Y142527D01*
X13000Y142669D01*
D02*
G37*
G36*
X203000Y132669D02*
X201921Y132527D01*
X200915Y132111D01*
X200052Y131448D01*
X199389Y130585D01*
X198973Y129579D01*
X198830Y128500D01*
X198973Y127421D01*
X199389Y126415D01*
X200052Y125552D01*
X200915Y124889D01*
X201921Y124473D01*
X203000Y124330D01*
X204079Y124473D01*
X205085Y124889D01*
X205948Y125552D01*
X206611Y126415D01*
X207027Y127421D01*
X207170Y128500D01*
X207027Y129579D01*
X206611Y130585D01*
X205948Y131448D01*
X205085Y132111D01*
X204079Y132527D01*
X203000Y132669D01*
D02*
G37*
G36*
X193000D02*
X191921Y132527D01*
X190915Y132111D01*
X190052Y131448D01*
X189389Y130585D01*
X188973Y129579D01*
X188830Y128500D01*
X188973Y127421D01*
X189389Y126415D01*
X190052Y125552D01*
X190915Y124889D01*
X191921Y124473D01*
X193000Y124330D01*
X194079Y124473D01*
X195085Y124889D01*
X195948Y125552D01*
X196611Y126415D01*
X197027Y127421D01*
X197169Y128500D01*
X197027Y129579D01*
X196611Y130585D01*
X195948Y131448D01*
X195085Y132111D01*
X194079Y132527D01*
X193000Y132669D01*
D02*
G37*
G36*
X23000D02*
X21921Y132527D01*
X20915Y132111D01*
X20052Y131448D01*
X19389Y130585D01*
X18973Y129579D01*
X18831Y128500D01*
X18973Y127421D01*
X19389Y126415D01*
X20052Y125552D01*
X20915Y124889D01*
X21921Y124473D01*
X23000Y124330D01*
X24079Y124473D01*
X25085Y124889D01*
X25948Y125552D01*
X26611Y126415D01*
X27027Y127421D01*
X27169Y128500D01*
X27027Y129579D01*
X26611Y130585D01*
X25948Y131448D01*
X25085Y132111D01*
X24079Y132527D01*
X23000Y132669D01*
D02*
G37*
G36*
X13000D02*
X11921Y132527D01*
X10915Y132111D01*
X10052Y131448D01*
X9389Y130585D01*
X8973Y129579D01*
X8830Y128500D01*
X8973Y127421D01*
X9389Y126415D01*
X10052Y125552D01*
X10915Y124889D01*
X11921Y124473D01*
X13000Y124330D01*
X14079Y124473D01*
X15085Y124889D01*
X15948Y125552D01*
X16611Y126415D01*
X17027Y127421D01*
X17169Y128500D01*
X17027Y129579D01*
X16611Y130585D01*
X15948Y131448D01*
X15085Y132111D01*
X14079Y132527D01*
X13000Y132669D01*
D02*
G37*
G36*
X203000Y122669D02*
X201921Y122527D01*
X200915Y122111D01*
X200052Y121448D01*
X199389Y120585D01*
X198973Y119579D01*
X198830Y118500D01*
X198973Y117421D01*
X199389Y116415D01*
X200052Y115552D01*
X200915Y114889D01*
X201921Y114473D01*
X203000Y114330D01*
X204079Y114473D01*
X205085Y114889D01*
X205948Y115552D01*
X206611Y116415D01*
X207027Y117421D01*
X207170Y118500D01*
X207027Y119579D01*
X206611Y120585D01*
X205948Y121448D01*
X205085Y122111D01*
X204079Y122527D01*
X203000Y122669D01*
D02*
G37*
G36*
X193000D02*
X191921Y122527D01*
X190915Y122111D01*
X190052Y121448D01*
X189389Y120585D01*
X188973Y119579D01*
X188830Y118500D01*
X188973Y117421D01*
X189389Y116415D01*
X190052Y115552D01*
X190915Y114889D01*
X191921Y114473D01*
X193000Y114330D01*
X194079Y114473D01*
X195085Y114889D01*
X195948Y115552D01*
X196611Y116415D01*
X197027Y117421D01*
X197169Y118500D01*
X197027Y119579D01*
X196611Y120585D01*
X195948Y121448D01*
X195085Y122111D01*
X194079Y122527D01*
X193000Y122669D01*
D02*
G37*
G36*
X23000D02*
X21921Y122527D01*
X20915Y122111D01*
X20052Y121448D01*
X19389Y120585D01*
X18973Y119579D01*
X18831Y118500D01*
X18973Y117421D01*
X19389Y116415D01*
X20052Y115552D01*
X20915Y114889D01*
X21921Y114473D01*
X23000Y114330D01*
X24079Y114473D01*
X25085Y114889D01*
X25948Y115552D01*
X26611Y116415D01*
X27027Y117421D01*
X27169Y118500D01*
X27027Y119579D01*
X26611Y120585D01*
X25948Y121448D01*
X25085Y122111D01*
X24079Y122527D01*
X23000Y122669D01*
D02*
G37*
G36*
X13000D02*
X11921Y122527D01*
X10915Y122111D01*
X10052Y121448D01*
X9389Y120585D01*
X8973Y119579D01*
X8830Y118500D01*
X8973Y117421D01*
X9389Y116415D01*
X10052Y115552D01*
X10915Y114889D01*
X11921Y114473D01*
X13000Y114330D01*
X14079Y114473D01*
X15085Y114889D01*
X15948Y115552D01*
X16611Y116415D01*
X17027Y117421D01*
X17169Y118500D01*
X17027Y119579D01*
X16611Y120585D01*
X15948Y121448D01*
X15085Y122111D01*
X14079Y122527D01*
X13000Y122669D01*
D02*
G37*
G36*
X203000Y112670D02*
X201921Y112527D01*
X200915Y112111D01*
X200052Y111448D01*
X199389Y110585D01*
X198973Y109579D01*
X198830Y108500D01*
X198973Y107421D01*
X199389Y106415D01*
X200052Y105552D01*
X200915Y104889D01*
X201921Y104473D01*
X203000Y104331D01*
X204079Y104473D01*
X205085Y104889D01*
X205948Y105552D01*
X206611Y106415D01*
X207027Y107421D01*
X207170Y108500D01*
X207027Y109579D01*
X206611Y110585D01*
X205948Y111448D01*
X205085Y112111D01*
X204079Y112527D01*
X203000Y112670D01*
D02*
G37*
G36*
X193000D02*
X191921Y112527D01*
X190915Y112111D01*
X190052Y111448D01*
X189389Y110585D01*
X188973Y109579D01*
X188830Y108500D01*
X188973Y107421D01*
X189389Y106415D01*
X190052Y105552D01*
X190915Y104889D01*
X191921Y104473D01*
X193000Y104331D01*
X194079Y104473D01*
X195085Y104889D01*
X195948Y105552D01*
X196611Y106415D01*
X197027Y107421D01*
X197169Y108500D01*
X197027Y109579D01*
X196611Y110585D01*
X195948Y111448D01*
X195085Y112111D01*
X194079Y112527D01*
X193000Y112670D01*
D02*
G37*
G36*
X23000D02*
X21921Y112527D01*
X20915Y112111D01*
X20052Y111448D01*
X19389Y110585D01*
X18973Y109579D01*
X18831Y108500D01*
X18973Y107421D01*
X19389Y106415D01*
X20052Y105552D01*
X20915Y104889D01*
X21921Y104473D01*
X23000Y104331D01*
X24079Y104473D01*
X25085Y104889D01*
X25948Y105552D01*
X26611Y106415D01*
X27027Y107421D01*
X27169Y108500D01*
X27027Y109579D01*
X26611Y110585D01*
X25948Y111448D01*
X25085Y112111D01*
X24079Y112527D01*
X23000Y112670D01*
D02*
G37*
G36*
X13000D02*
X11921Y112527D01*
X10915Y112111D01*
X10052Y111448D01*
X9389Y110585D01*
X8973Y109579D01*
X8830Y108500D01*
X8973Y107421D01*
X9389Y106415D01*
X10052Y105552D01*
X10915Y104889D01*
X11921Y104473D01*
X13000Y104331D01*
X14079Y104473D01*
X15085Y104889D01*
X15948Y105552D01*
X16611Y106415D01*
X17027Y107421D01*
X17169Y108500D01*
X17027Y109579D01*
X16611Y110585D01*
X15948Y111448D01*
X15085Y112111D01*
X14079Y112527D01*
X13000Y112670D01*
D02*
G37*
G36*
X203000Y102670D02*
X201921Y102527D01*
X200915Y102111D01*
X200052Y101448D01*
X199389Y100585D01*
X198973Y99579D01*
X198830Y98500D01*
X198973Y97421D01*
X199389Y96415D01*
X200052Y95552D01*
X200915Y94889D01*
X201921Y94473D01*
X203000Y94331D01*
X204079Y94473D01*
X205085Y94889D01*
X205948Y95552D01*
X206611Y96415D01*
X207027Y97421D01*
X207170Y98500D01*
X207027Y99579D01*
X206611Y100585D01*
X205948Y101448D01*
X205085Y102111D01*
X204079Y102527D01*
X203000Y102670D01*
D02*
G37*
G36*
X193000D02*
X191921Y102527D01*
X190915Y102111D01*
X190052Y101448D01*
X189389Y100585D01*
X188973Y99579D01*
X188830Y98500D01*
X188973Y97421D01*
X189389Y96415D01*
X190052Y95552D01*
X190915Y94889D01*
X191921Y94473D01*
X193000Y94331D01*
X194079Y94473D01*
X195085Y94889D01*
X195948Y95552D01*
X196611Y96415D01*
X197027Y97421D01*
X197169Y98500D01*
X197027Y99579D01*
X196611Y100585D01*
X195948Y101448D01*
X195085Y102111D01*
X194079Y102527D01*
X193000Y102670D01*
D02*
G37*
G36*
X23000D02*
X21921Y102527D01*
X20915Y102111D01*
X20052Y101448D01*
X19389Y100585D01*
X18973Y99579D01*
X18831Y98500D01*
X18973Y97421D01*
X19389Y96415D01*
X20052Y95552D01*
X20915Y94889D01*
X21921Y94473D01*
X23000Y94331D01*
X24079Y94473D01*
X25085Y94889D01*
X25948Y95552D01*
X26611Y96415D01*
X27027Y97421D01*
X27169Y98500D01*
X27027Y99579D01*
X26611Y100585D01*
X25948Y101448D01*
X25085Y102111D01*
X24079Y102527D01*
X23000Y102670D01*
D02*
G37*
G36*
X13000D02*
X11921Y102527D01*
X10915Y102111D01*
X10052Y101448D01*
X9389Y100585D01*
X8973Y99579D01*
X8830Y98500D01*
X8973Y97421D01*
X9389Y96415D01*
X10052Y95552D01*
X10915Y94889D01*
X11921Y94473D01*
X13000Y94331D01*
X14079Y94473D01*
X15085Y94889D01*
X15948Y95552D01*
X16611Y96415D01*
X17027Y97421D01*
X17169Y98500D01*
X17027Y99579D01*
X16611Y100585D01*
X15948Y101448D01*
X15085Y102111D01*
X14079Y102527D01*
X13000Y102670D01*
D02*
G37*
G36*
X203000Y92669D02*
X201921Y92527D01*
X200915Y92111D01*
X200052Y91448D01*
X199389Y90585D01*
X198973Y89579D01*
X198830Y88500D01*
X198973Y87421D01*
X199389Y86415D01*
X200052Y85552D01*
X200915Y84889D01*
X201921Y84473D01*
X203000Y84330D01*
X204079Y84473D01*
X205085Y84889D01*
X205948Y85552D01*
X206611Y86415D01*
X207027Y87421D01*
X207170Y88500D01*
X207027Y89579D01*
X206611Y90585D01*
X205948Y91448D01*
X205085Y92111D01*
X204079Y92527D01*
X203000Y92669D01*
D02*
G37*
G36*
X193000D02*
X191921Y92527D01*
X190915Y92111D01*
X190052Y91448D01*
X189389Y90585D01*
X188973Y89579D01*
X188830Y88500D01*
X188973Y87421D01*
X189389Y86415D01*
X190052Y85552D01*
X190915Y84889D01*
X191921Y84473D01*
X193000Y84330D01*
X194079Y84473D01*
X195085Y84889D01*
X195948Y85552D01*
X196611Y86415D01*
X197027Y87421D01*
X197169Y88500D01*
X197027Y89579D01*
X196611Y90585D01*
X195948Y91448D01*
X195085Y92111D01*
X194079Y92527D01*
X193000Y92669D01*
D02*
G37*
G36*
X23000D02*
X21921Y92527D01*
X20915Y92111D01*
X20052Y91448D01*
X19389Y90585D01*
X18973Y89579D01*
X18831Y88500D01*
X18973Y87421D01*
X19389Y86415D01*
X20052Y85552D01*
X20915Y84889D01*
X21921Y84473D01*
X23000Y84330D01*
X24079Y84473D01*
X25085Y84889D01*
X25948Y85552D01*
X26611Y86415D01*
X27027Y87421D01*
X27169Y88500D01*
X27027Y89579D01*
X26611Y90585D01*
X25948Y91448D01*
X25085Y92111D01*
X24079Y92527D01*
X23000Y92669D01*
D02*
G37*
G36*
X13000D02*
X11921Y92527D01*
X10915Y92111D01*
X10052Y91448D01*
X9389Y90585D01*
X8973Y89579D01*
X8830Y88500D01*
X8973Y87421D01*
X9389Y86415D01*
X10052Y85552D01*
X10915Y84889D01*
X11921Y84473D01*
X13000Y84330D01*
X14079Y84473D01*
X15085Y84889D01*
X15948Y85552D01*
X16611Y86415D01*
X17027Y87421D01*
X17169Y88500D01*
X17027Y89579D01*
X16611Y90585D01*
X15948Y91448D01*
X15085Y92111D01*
X14079Y92527D01*
X13000Y92669D01*
D02*
G37*
G36*
X203000Y82670D02*
X201921Y82527D01*
X200915Y82111D01*
X200052Y81448D01*
X199389Y80585D01*
X198973Y79579D01*
X198830Y78500D01*
X198973Y77421D01*
X199389Y76415D01*
X200052Y75552D01*
X200915Y74889D01*
X201921Y74473D01*
X203000Y74331D01*
X204079Y74473D01*
X205085Y74889D01*
X205948Y75552D01*
X206611Y76415D01*
X207027Y77421D01*
X207170Y78500D01*
X207027Y79579D01*
X206611Y80585D01*
X205948Y81448D01*
X205085Y82111D01*
X204079Y82527D01*
X203000Y82670D01*
D02*
G37*
G36*
X193000D02*
X191921Y82527D01*
X190915Y82111D01*
X190052Y81448D01*
X189389Y80585D01*
X188973Y79579D01*
X188830Y78500D01*
X188973Y77421D01*
X189389Y76415D01*
X190052Y75552D01*
X190915Y74889D01*
X191921Y74473D01*
X193000Y74331D01*
X194079Y74473D01*
X195085Y74889D01*
X195948Y75552D01*
X196611Y76415D01*
X197027Y77421D01*
X197169Y78500D01*
X197027Y79579D01*
X196611Y80585D01*
X195948Y81448D01*
X195085Y82111D01*
X194079Y82527D01*
X193000Y82670D01*
D02*
G37*
G36*
X23000D02*
X21921Y82527D01*
X20915Y82111D01*
X20052Y81448D01*
X19389Y80585D01*
X18973Y79579D01*
X18831Y78500D01*
X18973Y77421D01*
X19389Y76415D01*
X20052Y75552D01*
X20915Y74889D01*
X21921Y74473D01*
X23000Y74331D01*
X24079Y74473D01*
X25085Y74889D01*
X25948Y75552D01*
X26611Y76415D01*
X27027Y77421D01*
X27169Y78500D01*
X27027Y79579D01*
X26611Y80585D01*
X25948Y81448D01*
X25085Y82111D01*
X24079Y82527D01*
X23000Y82670D01*
D02*
G37*
G36*
X13000D02*
X11921Y82527D01*
X10915Y82111D01*
X10052Y81448D01*
X9389Y80585D01*
X8973Y79579D01*
X8830Y78500D01*
X8973Y77421D01*
X9389Y76415D01*
X10052Y75552D01*
X10915Y74889D01*
X11921Y74473D01*
X13000Y74331D01*
X14079Y74473D01*
X15085Y74889D01*
X15948Y75552D01*
X16611Y76415D01*
X17027Y77421D01*
X17169Y78500D01*
X17027Y79579D01*
X16611Y80585D01*
X15948Y81448D01*
X15085Y82111D01*
X14079Y82527D01*
X13000Y82670D01*
D02*
G37*
G36*
X203000Y72670D02*
X201921Y72527D01*
X200915Y72111D01*
X200052Y71448D01*
X199389Y70585D01*
X198973Y69579D01*
X198830Y68500D01*
X198973Y67421D01*
X199389Y66415D01*
X200052Y65552D01*
X200915Y64889D01*
X201921Y64473D01*
X203000Y64331D01*
X204079Y64473D01*
X205085Y64889D01*
X205948Y65552D01*
X206611Y66415D01*
X207027Y67421D01*
X207170Y68500D01*
X207027Y69579D01*
X206611Y70585D01*
X205948Y71448D01*
X205085Y72111D01*
X204079Y72527D01*
X203000Y72670D01*
D02*
G37*
G36*
X193000D02*
X191921Y72527D01*
X190915Y72111D01*
X190052Y71448D01*
X189389Y70585D01*
X188973Y69579D01*
X188830Y68500D01*
X188973Y67421D01*
X189389Y66415D01*
X190052Y65552D01*
X190915Y64889D01*
X191921Y64473D01*
X193000Y64331D01*
X194079Y64473D01*
X195085Y64889D01*
X195948Y65552D01*
X196611Y66415D01*
X197027Y67421D01*
X197169Y68500D01*
X197027Y69579D01*
X196611Y70585D01*
X195948Y71448D01*
X195085Y72111D01*
X194079Y72527D01*
X193000Y72670D01*
D02*
G37*
G36*
X23000D02*
X21921Y72527D01*
X20915Y72111D01*
X20052Y71448D01*
X19389Y70585D01*
X18973Y69579D01*
X18831Y68500D01*
X18973Y67421D01*
X19389Y66415D01*
X20052Y65552D01*
X20915Y64889D01*
X21921Y64473D01*
X23000Y64331D01*
X24079Y64473D01*
X25085Y64889D01*
X25948Y65552D01*
X26611Y66415D01*
X27027Y67421D01*
X27169Y68500D01*
X27027Y69579D01*
X26611Y70585D01*
X25948Y71448D01*
X25085Y72111D01*
X24079Y72527D01*
X23000Y72670D01*
D02*
G37*
G36*
X13000D02*
X11921Y72527D01*
X10915Y72111D01*
X10052Y71448D01*
X9389Y70585D01*
X8973Y69579D01*
X8830Y68500D01*
X8973Y67421D01*
X9389Y66415D01*
X10052Y65552D01*
X10915Y64889D01*
X11921Y64473D01*
X13000Y64331D01*
X14079Y64473D01*
X15085Y64889D01*
X15948Y65552D01*
X16611Y66415D01*
X17027Y67421D01*
X17169Y68500D01*
X17027Y69579D01*
X16611Y70585D01*
X15948Y71448D01*
X15085Y72111D01*
X14079Y72527D01*
X13000Y72670D01*
D02*
G37*
G36*
X203000Y62669D02*
X201921Y62527D01*
X200915Y62111D01*
X200052Y61448D01*
X199389Y60585D01*
X198973Y59579D01*
X198830Y58500D01*
X198973Y57421D01*
X199389Y56415D01*
X200052Y55552D01*
X200915Y54889D01*
X201921Y54473D01*
X203000Y54330D01*
X204079Y54473D01*
X205085Y54889D01*
X205948Y55552D01*
X206611Y56415D01*
X207027Y57421D01*
X207170Y58500D01*
X207027Y59579D01*
X206611Y60585D01*
X205948Y61448D01*
X205085Y62111D01*
X204079Y62527D01*
X203000Y62669D01*
D02*
G37*
G36*
X193000D02*
X191921Y62527D01*
X190915Y62111D01*
X190052Y61448D01*
X189389Y60585D01*
X188973Y59579D01*
X188830Y58500D01*
X188973Y57421D01*
X189389Y56415D01*
X190052Y55552D01*
X190915Y54889D01*
X191921Y54473D01*
X193000Y54330D01*
X194079Y54473D01*
X195085Y54889D01*
X195948Y55552D01*
X196611Y56415D01*
X197027Y57421D01*
X197169Y58500D01*
X197027Y59579D01*
X196611Y60585D01*
X195948Y61448D01*
X195085Y62111D01*
X194079Y62527D01*
X193000Y62669D01*
D02*
G37*
G36*
X23000D02*
X21921Y62527D01*
X20915Y62111D01*
X20052Y61448D01*
X19389Y60585D01*
X18973Y59579D01*
X18831Y58500D01*
X18973Y57421D01*
X19389Y56415D01*
X20052Y55552D01*
X20915Y54889D01*
X21921Y54473D01*
X23000Y54330D01*
X24079Y54473D01*
X25085Y54889D01*
X25948Y55552D01*
X26611Y56415D01*
X27027Y57421D01*
X27169Y58500D01*
X27027Y59579D01*
X26611Y60585D01*
X25948Y61448D01*
X25085Y62111D01*
X24079Y62527D01*
X23000Y62669D01*
D02*
G37*
G36*
X13000D02*
X11921Y62527D01*
X10915Y62111D01*
X10052Y61448D01*
X9389Y60585D01*
X8973Y59579D01*
X8830Y58500D01*
X8973Y57421D01*
X9389Y56415D01*
X10052Y55552D01*
X10915Y54889D01*
X11921Y54473D01*
X13000Y54330D01*
X14079Y54473D01*
X15085Y54889D01*
X15948Y55552D01*
X16611Y56415D01*
X17027Y57421D01*
X17169Y58500D01*
X17027Y59579D01*
X16611Y60585D01*
X15948Y61448D01*
X15085Y62111D01*
X14079Y62527D01*
X13000Y62669D01*
D02*
G37*
G36*
X203000Y52670D02*
X201921Y52527D01*
X200915Y52111D01*
X200052Y51448D01*
X199389Y50585D01*
X198973Y49579D01*
X198830Y48500D01*
X198973Y47421D01*
X199389Y46415D01*
X200052Y45552D01*
X200915Y44889D01*
X201921Y44473D01*
X203000Y44330D01*
X204079Y44473D01*
X205085Y44889D01*
X205948Y45552D01*
X206611Y46415D01*
X207027Y47421D01*
X207170Y48500D01*
X207027Y49579D01*
X206611Y50585D01*
X205948Y51448D01*
X205085Y52111D01*
X204079Y52527D01*
X203000Y52670D01*
D02*
G37*
G36*
X193000D02*
X191921Y52527D01*
X190915Y52111D01*
X190052Y51448D01*
X189389Y50585D01*
X188973Y49579D01*
X188830Y48500D01*
X188973Y47421D01*
X189389Y46415D01*
X190052Y45552D01*
X190915Y44889D01*
X191921Y44473D01*
X193000Y44330D01*
X194079Y44473D01*
X195085Y44889D01*
X195948Y45552D01*
X196611Y46415D01*
X197027Y47421D01*
X197169Y48500D01*
X197027Y49579D01*
X196611Y50585D01*
X195948Y51448D01*
X195085Y52111D01*
X194079Y52527D01*
X193000Y52670D01*
D02*
G37*
G36*
X23000D02*
X21921Y52527D01*
X20915Y52111D01*
X20052Y51448D01*
X19389Y50585D01*
X18973Y49579D01*
X18831Y48500D01*
X18973Y47421D01*
X19389Y46415D01*
X20052Y45552D01*
X20915Y44889D01*
X21921Y44473D01*
X23000Y44330D01*
X24079Y44473D01*
X25085Y44889D01*
X25948Y45552D01*
X26611Y46415D01*
X27027Y47421D01*
X27169Y48500D01*
X27027Y49579D01*
X26611Y50585D01*
X25948Y51448D01*
X25085Y52111D01*
X24079Y52527D01*
X23000Y52670D01*
D02*
G37*
G36*
X13000D02*
X11921Y52527D01*
X10915Y52111D01*
X10052Y51448D01*
X9389Y50585D01*
X8973Y49579D01*
X8830Y48500D01*
X8973Y47421D01*
X9389Y46415D01*
X10052Y45552D01*
X10915Y44889D01*
X11921Y44473D01*
X13000Y44330D01*
X14079Y44473D01*
X15085Y44889D01*
X15948Y45552D01*
X16611Y46415D01*
X17027Y47421D01*
X17169Y48500D01*
X17027Y49579D01*
X16611Y50585D01*
X15948Y51448D01*
X15085Y52111D01*
X14079Y52527D01*
X13000Y52670D01*
D02*
G37*
G36*
X85181Y16254D02*
X45255D01*
Y4319D01*
X85181D01*
Y16254D01*
D02*
G37*
G36*
X178425Y347735D02*
X150715D01*
X149942Y347581D01*
X149287Y347143D01*
X144144Y342001D01*
X144079Y342027D01*
X143000Y342169D01*
X141921Y342027D01*
X140915Y341611D01*
X140052Y340948D01*
X139389Y340085D01*
X138973Y339079D01*
X138830Y338000D01*
X138973Y336921D01*
X139389Y335915D01*
X140052Y335052D01*
X140915Y334389D01*
X141921Y333973D01*
X143000Y333830D01*
X144079Y333973D01*
X145085Y334389D01*
X145948Y335052D01*
X146611Y335915D01*
X147027Y336921D01*
X147169Y338000D01*
X147027Y339079D01*
X147001Y339144D01*
X151552Y343695D01*
X155185D01*
X155377Y343233D01*
X154144Y342001D01*
X154079Y342027D01*
X153000Y342169D01*
X151921Y342027D01*
X150915Y341611D01*
X150052Y340948D01*
X149389Y340085D01*
X148973Y339079D01*
X148830Y338000D01*
X148973Y336921D01*
X149389Y335915D01*
X150052Y335052D01*
X150915Y334389D01*
X151921Y333973D01*
X153000Y333830D01*
X154079Y333973D01*
X155085Y334389D01*
X155948Y335052D01*
X156611Y335915D01*
X157027Y336921D01*
X157169Y338000D01*
X157027Y339079D01*
X157001Y339144D01*
X158771Y340914D01*
X159623D01*
X159870Y340414D01*
X159547Y339993D01*
X159149Y339032D01*
X159079Y338500D01*
X166921D01*
X166851Y339032D01*
X166453Y339993D01*
X166130Y340414D01*
X166377Y340914D01*
X169460D01*
X169681Y340465D01*
X169389Y340085D01*
X168973Y339079D01*
X168831Y338000D01*
X168973Y336921D01*
X169389Y335915D01*
X170052Y335052D01*
X170915Y334389D01*
X170980Y334362D01*
Y329793D01*
X171134Y329020D01*
X171572Y328364D01*
X187798Y312138D01*
X188454Y311700D01*
X189227Y311546D01*
X189497D01*
X189743Y311046D01*
X189389Y310585D01*
X188973Y309579D01*
X188830Y308500D01*
X188973Y307421D01*
X189389Y306415D01*
X190052Y305552D01*
X190915Y304889D01*
X191921Y304473D01*
X193000Y304330D01*
X194079Y304473D01*
X195085Y304889D01*
X195546Y305243D01*
X196046Y304997D01*
Y304345D01*
X196200Y303572D01*
X196638Y302916D01*
X199266Y300288D01*
X198973Y299579D01*
X198830Y298500D01*
X198973Y297421D01*
X199389Y296415D01*
X200052Y295552D01*
X200915Y294889D01*
X201921Y294473D01*
X203000Y294331D01*
X204079Y294473D01*
X205085Y294889D01*
X205948Y295552D01*
X206611Y296415D01*
X207027Y297421D01*
X207170Y298500D01*
X207027Y299579D01*
X206611Y300585D01*
X205948Y301448D01*
X205085Y302111D01*
X204079Y302527D01*
X203000Y302670D01*
X202644Y302623D01*
X200922Y304345D01*
X201205Y304769D01*
X201921Y304473D01*
X203000Y304330D01*
X204079Y304473D01*
X205085Y304889D01*
X205948Y305552D01*
X206611Y306415D01*
X207027Y307421D01*
X207170Y308500D01*
X207027Y309579D01*
X206611Y310585D01*
X205948Y311448D01*
X205085Y312111D01*
X204079Y312527D01*
X203000Y312669D01*
X202644Y312623D01*
X200922Y314345D01*
X201205Y314769D01*
X201921Y314473D01*
X203000Y314331D01*
X204079Y314473D01*
X205085Y314889D01*
X205948Y315552D01*
X206611Y316415D01*
X207027Y317421D01*
X207170Y318500D01*
X207027Y319579D01*
X206611Y320585D01*
X205948Y321448D01*
X205085Y322111D01*
X204079Y322527D01*
X203000Y322670D01*
X202735Y323108D01*
Y323425D01*
X202581Y324198D01*
X202143Y324854D01*
X179854Y347143D01*
X179198Y347581D01*
X178425Y347735D01*
D02*
G37*
G36*
X166921Y337500D02*
X163500D01*
Y334079D01*
X164032Y334149D01*
X164993Y334547D01*
X165819Y335181D01*
X166453Y336007D01*
X166851Y336968D01*
X166921Y337500D01*
D02*
G37*
G36*
X162500D02*
X159079D01*
X159149Y336968D01*
X159547Y336007D01*
X160181Y335181D01*
X161007Y334547D01*
X161968Y334149D01*
X162500Y334079D01*
Y337500D01*
D02*
G37*
G36*
X193000Y302670D02*
X191921Y302527D01*
X190915Y302111D01*
X190052Y301448D01*
X189389Y300585D01*
X188973Y299579D01*
X188830Y298500D01*
X188973Y297421D01*
X189389Y296415D01*
X190052Y295552D01*
X190915Y294889D01*
X191921Y294473D01*
X193000Y294331D01*
X194079Y294473D01*
X195085Y294889D01*
X195948Y295552D01*
X196611Y296415D01*
X197027Y297421D01*
X197169Y298500D01*
X197027Y299579D01*
X196611Y300585D01*
X195948Y301448D01*
X195085Y302111D01*
X194079Y302527D01*
X193000Y302670D01*
D02*
G37*
G36*
X203500Y292421D02*
Y289000D01*
X206921D01*
X206851Y289532D01*
X206453Y290493D01*
X205819Y291319D01*
X204993Y291953D01*
X204032Y292351D01*
X203500Y292421D01*
D02*
G37*
G36*
X202500D02*
X201968Y292351D01*
X201007Y291953D01*
X200181Y291319D01*
X199547Y290493D01*
X199149Y289532D01*
X199079Y289000D01*
X202500D01*
Y292421D01*
D02*
G37*
G36*
X206921Y288000D02*
X203500D01*
Y284579D01*
X204032Y284649D01*
X204993Y285047D01*
X205819Y285681D01*
X206453Y286507D01*
X206851Y287468D01*
X206921Y288000D01*
D02*
G37*
G36*
X202500D02*
X199079D01*
X199149Y287468D01*
X199547Y286507D01*
X200181Y285681D01*
X201007Y285047D01*
X201968Y284649D01*
X202500Y284579D01*
Y288000D01*
D02*
G37*
G36*
X203000Y252670D02*
X201921Y252527D01*
X200915Y252111D01*
X200052Y251448D01*
X199389Y250585D01*
X198973Y249579D01*
X198830Y248500D01*
X198973Y247421D01*
X199389Y246415D01*
X200052Y245552D01*
X200915Y244889D01*
X201921Y244473D01*
X203000Y244331D01*
X204079Y244473D01*
X205085Y244889D01*
X205948Y245552D01*
X206611Y246415D01*
X207027Y247421D01*
X207170Y248500D01*
X207027Y249579D01*
X206611Y250585D01*
X205948Y251448D01*
X205085Y252111D01*
X204079Y252527D01*
X203000Y252670D01*
D02*
G37*
G36*
X193000D02*
X191921Y252527D01*
X190915Y252111D01*
X190052Y251448D01*
X189389Y250585D01*
X188973Y249579D01*
X188830Y248500D01*
X188973Y247421D01*
X189389Y246415D01*
X190052Y245552D01*
X190915Y244889D01*
X191921Y244473D01*
X193000Y244331D01*
X194079Y244473D01*
X195085Y244889D01*
X195948Y245552D01*
X196611Y246415D01*
X197027Y247421D01*
X197169Y248500D01*
X197027Y249579D01*
X196611Y250585D01*
X195948Y251448D01*
X195085Y252111D01*
X194079Y252527D01*
X193000Y252670D01*
D02*
G37*
G36*
X203000Y242670D02*
X201921Y242527D01*
X200915Y242111D01*
X200052Y241448D01*
X199389Y240585D01*
X198973Y239579D01*
X198830Y238500D01*
X198973Y237421D01*
X199389Y236415D01*
X200052Y235552D01*
X200915Y234889D01*
X201921Y234473D01*
X203000Y234331D01*
X204079Y234473D01*
X205085Y234889D01*
X205948Y235552D01*
X206611Y236415D01*
X207027Y237421D01*
X207170Y238500D01*
X207027Y239579D01*
X206611Y240585D01*
X205948Y241448D01*
X205085Y242111D01*
X204079Y242527D01*
X203000Y242670D01*
D02*
G37*
G36*
X193000D02*
X191921Y242527D01*
X190915Y242111D01*
X190052Y241448D01*
X189389Y240585D01*
X188973Y239579D01*
X188830Y238500D01*
X188973Y237421D01*
X189389Y236415D01*
X190052Y235552D01*
X190915Y234889D01*
X191921Y234473D01*
X193000Y234331D01*
X194079Y234473D01*
X195085Y234889D01*
X195948Y235552D01*
X196611Y236415D01*
X197027Y237421D01*
X197169Y238500D01*
X197027Y239579D01*
X196611Y240585D01*
X195948Y241448D01*
X195085Y242111D01*
X194079Y242527D01*
X193000Y242670D01*
D02*
G37*
G36*
X203000Y232669D02*
X201921Y232527D01*
X200915Y232111D01*
X200052Y231448D01*
X199389Y230585D01*
X198973Y229579D01*
X198830Y228500D01*
X198973Y227421D01*
X199389Y226415D01*
X200052Y225552D01*
X200915Y224889D01*
X201921Y224473D01*
X203000Y224330D01*
X204079Y224473D01*
X205085Y224889D01*
X205948Y225552D01*
X206611Y226415D01*
X207027Y227421D01*
X207170Y228500D01*
X207027Y229579D01*
X206611Y230585D01*
X205948Y231448D01*
X205085Y232111D01*
X204079Y232527D01*
X203000Y232669D01*
D02*
G37*
%LPD*%
G36*
X194255Y323096D02*
X194063Y322634D01*
X188866D01*
Y317437D01*
X188404Y317245D01*
X175020Y330629D01*
Y334362D01*
X175085Y334389D01*
X175948Y335052D01*
X176611Y335915D01*
X177027Y336921D01*
X177170Y338000D01*
X177027Y339079D01*
X176611Y340085D01*
X177024Y340326D01*
X194255Y323096D01*
D02*
G37*
D24*
X48500Y219000D02*
Y312080D01*
X46500Y314080D02*
X48500Y312080D01*
X46500Y314080D02*
Y315000D01*
X57500Y219000D02*
Y296500D01*
X67000Y306000D01*
X176500Y158022D02*
Y214500D01*
X53000Y338000D02*
X176500Y214500D01*
X46571Y332863D02*
X48000Y334293D01*
X44363Y332863D02*
X46571D01*
X22977Y311477D02*
X44363Y332863D01*
X48000Y334293D02*
Y340563D01*
X15089Y311477D02*
X22977D01*
X203000Y188500D02*
X212000Y179500D01*
Y150500D02*
Y179500D01*
X205000Y143500D02*
X212000Y150500D01*
X196000Y143500D02*
X205000D01*
X195934Y143566D02*
X196000Y143500D01*
X190956Y143566D02*
X195934D01*
X180500Y174022D02*
Y220500D01*
X203000Y158500D02*
Y159411D01*
X190956Y173566D02*
X194911D01*
X184500Y180023D02*
X190956Y173566D01*
X180500Y174022D02*
X190956Y163566D01*
X194911D02*
X197934Y160544D01*
Y156589D02*
Y160544D01*
X198066Y164345D02*
X203000Y159411D01*
X198066Y164345D02*
Y170411D01*
X176500Y158022D02*
X190956Y143566D01*
X184500Y180023D02*
Y226500D01*
X194911Y173566D02*
X198066Y170411D01*
X190956Y163566D02*
X194911D01*
X197934Y156589D02*
X200956Y153566D01*
X205044D01*
X208500Y157023D01*
Y173000D01*
X63000Y338000D02*
X180500Y220500D01*
X203000Y178500D02*
X208500Y173000D01*
X203000Y168500D02*
Y169411D01*
X197934Y174477D02*
Y212273D01*
Y174477D02*
X203000Y169411D01*
X73000Y338000D02*
X184500Y226500D01*
X188066Y222141D02*
X197934Y212273D01*
X188066Y222141D02*
Y232934D01*
X126196Y345715D02*
X133000Y338911D01*
X98066Y342934D02*
X103000Y338000D01*
X50371Y342934D02*
X98066D01*
X48000Y340563D02*
X50371Y342934D01*
X27394Y345715D02*
X126196D01*
X2381Y320703D02*
X27394Y345715D01*
X83000Y338000D02*
X188066Y232934D01*
X121456Y333066D02*
X190956Y263566D01*
X97934Y333066D02*
X121456D01*
X198066Y263566D02*
X203000Y268500D01*
X190956Y263566D02*
X198066D01*
X185934Y273566D02*
X204911D01*
X128066Y335956D02*
X180456Y283566D01*
X197934D02*
X203000Y278500D01*
X145500Y314000D02*
X185934Y273566D01*
X180456Y283566D02*
X197934D01*
X123000Y336835D02*
Y338000D01*
X124435Y335065D02*
Y335400D01*
X145500Y314000D02*
Y314000D01*
X123000Y336835D02*
X124435Y335400D01*
Y335065D02*
X145500Y314000D01*
X93000Y338000D02*
X97934Y333066D01*
X203000Y258500D02*
X208500Y264000D01*
X204911Y273566D02*
X208500Y269977D01*
Y264000D02*
Y269977D01*
X128066Y335956D02*
Y338434D01*
X128000Y338500D02*
Y339978D01*
X125044Y342934D02*
X128000Y339978D01*
Y338500D02*
X128066Y338434D01*
X2381Y179119D02*
Y320703D01*
X133000Y338000D02*
Y338911D01*
X117934Y342934D02*
X125044D01*
X113000Y338000D02*
X117934Y342934D01*
X173000Y329793D02*
Y338000D01*
Y329793D02*
X189227Y313566D01*
X194911D01*
X198066Y304345D02*
X203000Y299411D01*
X198066Y304345D02*
Y310411D01*
X203000Y298500D02*
Y299411D01*
Y308500D02*
Y309411D01*
X197934Y314477D02*
X203000Y309411D01*
X197934Y314477D02*
Y322273D01*
X194911Y313566D02*
X198066Y310411D01*
X157934Y342934D02*
X177273D01*
X150715Y345715D02*
X178425D01*
X200715Y321950D02*
Y323425D01*
X143000Y338000D02*
X150715Y345715D01*
X178425D02*
X200715Y323425D01*
X177273Y342934D02*
X197934Y322273D01*
X203000Y318500D02*
Y319665D01*
X200715Y321950D02*
X203000Y319665D01*
X153000Y338000D02*
X157934Y342934D01*
X19258Y314258D02*
X23533Y318533D01*
X13938Y314258D02*
X19258D01*
X23533Y318533D02*
Y318533D01*
X26958Y321958D02*
X26958D01*
X23533Y318533D02*
X26958Y321958D01*
X2381Y179119D02*
X13000Y168500D01*
X8000Y193500D02*
Y304388D01*
X5219Y186281D02*
Y305540D01*
Y186281D02*
X13000Y178500D01*
X8000Y193500D02*
X13000Y188500D01*
X5219Y305540D02*
X13938Y314258D01*
X8000Y304388D02*
X15089Y311477D01*
X26958Y321958D02*
X43000Y338000D01*
D25*
X82213Y13285D02*
Y7287D01*
X79214D01*
X78214Y8287D01*
Y9287D01*
X79214Y10286D01*
X82213D01*
X79214D01*
X78214Y11286D01*
Y12286D01*
X79214Y13285D01*
X82213D01*
X73216D02*
X75215D01*
X76214Y12286D01*
Y8287D01*
X75215Y7287D01*
X73216D01*
X72216Y8287D01*
Y12286D01*
X73216Y13285D01*
X70217D02*
X66218D01*
X68217D01*
Y7287D01*
X64218Y13285D02*
X60220D01*
X62219D01*
Y7287D01*
X55221Y13285D02*
X57221D01*
X58220Y12286D01*
Y8287D01*
X57221Y7287D01*
X55221D01*
X54222Y8287D01*
Y12286D01*
X55221Y13285D01*
X52222Y7287D02*
Y13285D01*
X50223Y11286D01*
X48224Y13285D01*
Y7287D01*
D26*
X23000Y48500D02*
D03*
X13000D02*
D03*
X23000Y58500D02*
D03*
X13000D02*
D03*
X23000Y68500D02*
D03*
X13000D02*
D03*
X23000Y78500D02*
D03*
X13000D02*
D03*
X23000Y88500D02*
D03*
X13000D02*
D03*
X23000Y98500D02*
D03*
X13000D02*
D03*
X23000Y108500D02*
D03*
X13000D02*
D03*
X23000Y118500D02*
D03*
X13000D02*
D03*
X23000Y128500D02*
D03*
X13000D02*
D03*
X23000Y138500D02*
D03*
X13000D02*
D03*
X23000Y148500D02*
D03*
X13000D02*
D03*
X23000Y158500D02*
D03*
X13000D02*
D03*
X23000Y168500D02*
D03*
X13000D02*
D03*
X23000Y178500D02*
D03*
X13000D02*
D03*
X23000Y188500D02*
D03*
X13000Y208500D02*
D03*
X23000Y218500D02*
D03*
X13000D02*
D03*
X23000Y228500D02*
D03*
X13000D02*
D03*
X23000Y238500D02*
D03*
X13000D02*
D03*
X23000Y248500D02*
D03*
X13000D02*
D03*
X23000Y258500D02*
D03*
X13000D02*
D03*
X23000Y268500D02*
D03*
X13000D02*
D03*
X23000Y278500D02*
D03*
X13000D02*
D03*
X173000Y338000D02*
D03*
X163000D02*
D03*
X153000D02*
D03*
X143000D02*
D03*
X133000D02*
D03*
X123000D02*
D03*
X113000D02*
D03*
X103000D02*
D03*
X93000D02*
D03*
X83000D02*
D03*
X73000D02*
D03*
X63000D02*
D03*
X53000D02*
D03*
X203000Y318500D02*
D03*
X193000Y308500D02*
D03*
X203000D02*
D03*
X193000Y298500D02*
D03*
X203000D02*
D03*
X193000Y288500D02*
D03*
X203000D02*
D03*
X193000Y278500D02*
D03*
X203000D02*
D03*
X193000Y268500D02*
D03*
X203000D02*
D03*
X193000Y258500D02*
D03*
X203000D02*
D03*
X193000Y248500D02*
D03*
X203000D02*
D03*
X193000Y238500D02*
D03*
X203000D02*
D03*
X193000Y228500D02*
D03*
X203000D02*
D03*
Y208500D02*
D03*
X193000Y198500D02*
D03*
X203000D02*
D03*
X193000Y188500D02*
D03*
X203000D02*
D03*
X193000Y178500D02*
D03*
X203000D02*
D03*
X193000Y168500D02*
D03*
X203000D02*
D03*
X193000Y158500D02*
D03*
X203000D02*
D03*
X193000Y148500D02*
D03*
X203000D02*
D03*
X193000Y138500D02*
D03*
X203000D02*
D03*
X193000Y128500D02*
D03*
X203000D02*
D03*
X193000Y118500D02*
D03*
X203000D02*
D03*
X193000Y108500D02*
D03*
X203000D02*
D03*
X193000Y98500D02*
D03*
X203000D02*
D03*
X193000Y88500D02*
D03*
X203000D02*
D03*
X193000Y78500D02*
D03*
X203000D02*
D03*
X193000Y68500D02*
D03*
X203000D02*
D03*
X193000Y58500D02*
D03*
X203000D02*
D03*
X193000Y48500D02*
D03*
X203000D02*
D03*
D27*
X13000Y188500D02*
D03*
X23000Y208500D02*
D03*
X193000Y318500D02*
D03*
Y208500D02*
D03*
D28*
X43000Y338000D02*
D03*
D29*
X17500Y325342D02*
D03*
D30*
Y305658D02*
D03*
D31*
X194500Y18500D02*
D03*
X21500Y19000D02*
D03*
D32*
X46500Y315000D02*
D03*
X48500Y219000D02*
D03*
X67000Y306000D02*
D03*
X57500Y219000D02*
D03*
M02*
