G04*
G04 #@! TF.GenerationSoftware,Altium Limited,Altium Designer,20.0.13 (296)*
G04*
G04 Layer_Color=65535*
%FSLAX42Y42*%
%MOMM*%
G71*
G01*
G75*
%ADD10C,0.20*%
%ADD11C,0.25*%
%ADD12C,0.60*%
%ADD13C,0.15*%
%ADD14C,0.13*%
%ADD15C,0.20*%
%ADD16C,0.25*%
%ADD17R,1.40X1.20*%
%ADD18R,4.13X1.40*%
%ADD19R,1.20X1.40*%
%ADD20R,5.60X0.80*%
%ADD21R,5.60X0.80*%
G36*
X9047Y4051D02*
X9111Y4115D01*
Y3988D01*
X9047Y4051D01*
D02*
G37*
G36*
Y6033D02*
X9111Y6096D01*
Y5969D01*
X9047Y6033D01*
D02*
G37*
D10*
X6397Y8915D02*
G03*
X6397Y8915I-410J0D01*
G01*
X5193Y9052D02*
G03*
X5348Y9052I78J290D01*
G01*
Y9211D02*
G03*
X5193Y9211I-78J-290D01*
G01*
X6444Y4204D02*
G03*
X6444Y4204I-920J0D01*
G01*
X4346Y5052D02*
G03*
X4335Y4631I99J-213D01*
G01*
X4579Y5032D02*
G03*
X4544Y5052I-134J-193D01*
G01*
X4555Y4631D02*
G03*
X4579Y4645I-110J208D01*
G01*
X5342Y5560D02*
G03*
X4882Y5912I-237J167D01*
G01*
X4883Y5542D02*
G03*
X5352Y5576I223J186D01*
G01*
X6463Y6854D02*
G03*
X6618Y6854I78J290D01*
G01*
Y7014D02*
G03*
X6463Y7014I-78J-290D01*
G01*
X7215Y8741D02*
G03*
X7060Y8741I-78J-290D01*
G01*
Y8582D02*
G03*
X7215Y8582I78J290D01*
G01*
X8607Y2592D02*
G03*
X8607Y2437I290J-78D01*
G01*
X8767D02*
G03*
X8767Y2592I-290J78D01*
G01*
X8741Y1878D02*
G03*
X8741Y2033I-290J78D01*
G01*
X8582D02*
G03*
X8582Y1878I290J-78D01*
G01*
X8119Y876D02*
G03*
X8119Y876I-410J0D01*
G01*
X6806Y813D02*
G03*
X6806Y813I-410J0D01*
G01*
X6892Y7396D02*
G03*
X6906Y7372I208J110D01*
G01*
X7293D02*
G03*
X7312Y7406I-193J134D01*
G01*
X7312Y7605D02*
G03*
X6892Y7616I-213J-99D01*
G01*
X5627Y8915D02*
X5707D01*
X5667Y8875D02*
Y8955D01*
X5477Y8915D02*
X5557D01*
X5517Y8875D02*
Y8955D01*
X3616Y7985D02*
Y8220D01*
X3362Y8103D02*
X3489D01*
X3954D02*
X4081D01*
X3954Y7985D02*
Y8220D01*
X3489Y7985D02*
X3954D01*
X3489D02*
Y8220D01*
X3954D01*
X2767Y7429D02*
Y7683D01*
X2567Y7429D02*
Y7683D01*
Y7429D02*
X2767D01*
X2567Y7683D02*
X2767D01*
X2567Y7493D02*
X2767D01*
X2667Y7363D02*
Y7429D01*
Y7683D02*
Y7747D01*
X2431Y4010D02*
X2931D01*
X2431Y5589D02*
X2931D01*
Y4010D02*
Y5589D01*
X2431Y4010D02*
Y5589D01*
X2459Y4010D02*
Y5589D01*
X3785Y4236D02*
Y4386D01*
X3425D02*
X4145D01*
Y6906D01*
X3425Y4386D02*
Y6906D01*
X4145D01*
X3785D02*
Y7056D01*
X6484Y4164D02*
Y4244D01*
X6444Y4204D02*
X6524D01*
X6035D02*
X6115D01*
X6075Y4164D02*
Y4244D01*
X4579Y4645D02*
Y5032D01*
X4877Y5550D02*
Y5906D01*
X6786Y6942D02*
X7286D01*
X6786Y6622D02*
X7286D01*
Y6942D01*
X6786Y6622D02*
Y6942D01*
X6914Y7878D02*
Y8378D01*
X7234Y7878D02*
Y8378D01*
X6914D02*
X7234D01*
X6914Y7878D02*
X7234D01*
X6636Y8826D02*
Y9309D01*
X7588D01*
X6636Y8826D02*
X7588D01*
Y9309D01*
X7696Y6377D02*
X7950D01*
X7696Y6577D02*
X7950D01*
X7696Y6377D02*
Y6577D01*
X7950Y6377D02*
Y6577D01*
X7760Y6377D02*
Y6577D01*
X7630Y6477D02*
X7696D01*
X7950D02*
X8014D01*
X6896Y6183D02*
X7150D01*
X6896Y5983D02*
X7150D01*
Y6183D01*
X6896Y5983D02*
Y6183D01*
X7087Y5983D02*
Y6183D01*
X7150Y6083D02*
X7216D01*
X6833D02*
X6896D01*
X6863Y5147D02*
Y5648D01*
X7183Y5147D02*
Y5648D01*
X6863D02*
X7183D01*
X6863Y5147D02*
X7183D01*
X6287Y2389D02*
X6540D01*
X6287Y2589D02*
X6540D01*
X6287Y2389D02*
Y2589D01*
X6540Y2389D02*
Y2589D01*
X6350Y2389D02*
Y2589D01*
X6220Y2489D02*
X6287D01*
X6540D02*
X6604D01*
X6361Y1499D02*
Y1753D01*
X6161Y1499D02*
Y1753D01*
Y1499D02*
X6361D01*
X6161Y1753D02*
X6361D01*
X6161Y1562D02*
X6361D01*
X6261Y1433D02*
Y1499D01*
Y1753D02*
Y1816D01*
X7136Y1156D02*
Y1410D01*
X6936Y1156D02*
Y1410D01*
Y1156D02*
X7136D01*
X6936Y1410D02*
X7136D01*
X6936Y1219D02*
X7136D01*
X7036Y1090D02*
Y1156D01*
Y1410D02*
Y1473D01*
X7709Y516D02*
Y596D01*
X7669Y556D02*
X7749D01*
X7709Y366D02*
Y446D01*
X7669Y406D02*
X7749D01*
X6036Y813D02*
X6116D01*
X6076Y773D02*
Y853D01*
X5886Y813D02*
X5966D01*
X5926Y773D02*
Y853D01*
X5118Y1476D02*
Y2436D01*
X5677Y1476D02*
Y2436D01*
X5118D02*
X5677D01*
X4470Y1450D02*
Y2410D01*
X5030Y1450D02*
Y2410D01*
X4470D02*
X5030D01*
X4395Y1463D02*
Y2423D01*
X3835Y1463D02*
Y2423D01*
Y1463D02*
X4395D01*
X3772Y1476D02*
Y2436D01*
X3213Y1476D02*
Y2436D01*
Y1476D02*
X3772D01*
X2547Y6062D02*
Y6842D01*
X2516Y6062D02*
Y6842D01*
X2816Y6062D02*
Y6842D01*
X2516D02*
X2816D01*
X2516Y6062D02*
X2816D01*
X3003Y1093D02*
Y2133D01*
X2543Y1093D02*
X3003D01*
X2543D02*
Y2133D01*
X3003D01*
X2953Y1093D02*
Y2133D01*
X6906Y7372D02*
X7293D01*
D11*
X2616Y3944D02*
G03*
X2616Y3944I-12J0D01*
G01*
X4458Y4454D02*
G03*
X4458Y4454I-12J0D01*
G01*
X7326Y7064D02*
G03*
X7326Y7064I-12J0D01*
G01*
X6804Y8406D02*
G03*
X6804Y8406I-12J0D01*
G01*
X6753Y5676D02*
G03*
X6753Y5676I-12J0D01*
G01*
X2680Y5997D02*
G03*
X2680Y5997I-12J0D01*
G01*
X2620Y2068D02*
G03*
X2620Y2068I-12J0D01*
G01*
X6727Y7506D02*
G03*
X6727Y7506I-12J0D01*
G01*
D12*
X7216Y6842D02*
G03*
X7216Y6842I-30J0D01*
G01*
X7044Y8278D02*
G03*
X7044Y8278I-30J0D01*
G01*
X6993Y5547D02*
G03*
X6993Y5547I-30J0D01*
G01*
D13*
X4648Y8261D02*
Y8306D01*
Y8915D02*
Y8961D01*
X4547Y8306D02*
Y8915D01*
Y8306D02*
X4750D01*
Y8915D01*
X4547D02*
X4750D01*
X2705Y2533D02*
Y2578D01*
Y3188D02*
Y3233D01*
X2603Y2578D02*
Y3188D01*
Y2578D02*
X2807D01*
Y3188D01*
X2603D02*
X2807D01*
X3150Y4788D02*
Y4833D01*
Y4133D02*
Y4178D01*
X3251D02*
Y4788D01*
X3048D02*
X3251D01*
X3048Y4178D02*
Y4788D01*
Y4178D02*
X3251D01*
X3162Y5517D02*
Y5563D01*
Y6172D02*
Y6217D01*
X3061Y5563D02*
Y6172D01*
Y5563D02*
X3264D01*
Y6172D01*
X3061D02*
X3264D01*
X4508Y5644D02*
Y5690D01*
Y6299D02*
Y6344D01*
X4407Y5690D02*
Y6299D01*
Y5690D02*
X4610D01*
Y6299D01*
X4407D02*
X4610D01*
X6160Y5492D02*
Y5537D01*
Y6147D02*
Y6192D01*
X6058Y5537D02*
Y6147D01*
Y5537D02*
X6261D01*
Y6147D01*
X6058D02*
X6261D01*
X5728Y5492D02*
Y5537D01*
Y6147D02*
Y6192D01*
X5626Y5537D02*
Y6147D01*
Y5537D02*
X5829D01*
Y6147D01*
X5626D02*
X5829D01*
X5410Y6914D02*
Y6960D01*
Y7569D02*
Y7614D01*
X5309Y6960D02*
Y7569D01*
Y6960D02*
X5512D01*
Y7569D01*
X5309D02*
X5512D01*
X6160Y7092D02*
Y7137D01*
Y7747D02*
Y7792D01*
X6058Y7137D02*
Y7747D01*
Y7137D02*
X6261D01*
Y7747D01*
X6058D02*
X6261D01*
X8306Y7734D02*
Y7780D01*
Y7079D02*
Y7125D01*
X8407D02*
Y7734D01*
X8204D02*
X8407D01*
X8204Y7125D02*
Y7734D01*
Y7125D02*
X8407D01*
X8738Y7092D02*
Y7137D01*
Y7747D02*
Y7792D01*
X8636Y7137D02*
Y7747D01*
Y7137D02*
X8839D01*
Y7747D01*
X8636D02*
X8839D01*
X7575Y4686D02*
X7620D01*
X8230D02*
X8275D01*
X7620Y4788D02*
X8230D01*
X7620Y4585D02*
Y4788D01*
Y4585D02*
X8230D01*
Y4788D01*
X6693Y3320D02*
Y3365D01*
Y3975D02*
Y4020D01*
X6591Y3365D02*
Y3975D01*
Y3365D02*
X6794D01*
Y3975D01*
X6591D02*
X6794D01*
X7252Y3950D02*
Y3995D01*
Y3295D02*
Y3340D01*
X7353D02*
Y3950D01*
X7150D02*
X7353D01*
X7150Y3340D02*
Y3950D01*
Y3340D02*
X7353D01*
X7811Y3308D02*
Y3353D01*
Y3962D02*
Y4008D01*
X7709Y3353D02*
Y3962D01*
Y3353D02*
X7912D01*
Y3962D01*
X7709D02*
X7912D01*
X8217Y2350D02*
Y2395D01*
Y1695D02*
Y1740D01*
X8318D02*
Y2350D01*
X8115D02*
X8318D01*
X8115Y1740D02*
Y2350D01*
Y1740D02*
X8318D01*
X7798Y1682D02*
Y1727D01*
Y2337D02*
Y2382D01*
X7696Y1727D02*
Y2337D01*
Y1727D02*
X7899D01*
Y2337D01*
X7696D02*
X7899D01*
X7099Y229D02*
X7145D01*
X6444D02*
X6490D01*
Y127D02*
X7099D01*
Y330D01*
X6490D02*
X7099D01*
X6490Y127D02*
Y330D01*
X7353Y2324D02*
Y2369D01*
Y1669D02*
Y1715D01*
X7455D02*
Y2324D01*
X7252D02*
X7455D01*
X7252Y1715D02*
Y2324D01*
Y1715D02*
X7455D01*
X4801Y5690D02*
Y5766D01*
Y5740D01*
X4750Y5690D01*
X4788Y5728D01*
X4750Y5766D01*
D14*
X4293Y9042D02*
X4356Y9106D01*
Y8979D02*
Y9106D01*
X4293Y9042D02*
X4356Y8979D01*
X4077Y8628D02*
X4140Y8565D01*
X4013D02*
X4140D01*
X4013D02*
X4077Y8628D01*
X3502Y8657D02*
X4267D01*
Y9387D01*
X3502D02*
X4267D01*
X3502Y8657D02*
Y9387D01*
X3927D02*
X3977Y9237D01*
X4177D02*
X4227Y9387D01*
X3977Y9237D02*
X4177D01*
X3552Y9387D02*
X3602Y9237D01*
X3802D02*
X3852Y9387D01*
X3602Y9237D02*
X3802D01*
X9017Y2984D02*
Y4356D01*
X8280D02*
X9017D01*
X9111Y3988D02*
Y4115D01*
X9047Y4051D02*
X9111Y4115D01*
X9047Y4051D02*
X9111Y3988D01*
X8280Y2984D02*
X9017D01*
X8280D02*
Y4356D01*
X8357Y3981D02*
Y4121D01*
X8331Y3861D02*
X8839D01*
Y3975D01*
X8928D01*
Y4128D01*
X8839D02*
X8928D01*
X8839D02*
Y4242D01*
X8331D02*
X8839D01*
X8331Y3956D02*
X8357Y3981D01*
X8331Y3861D02*
Y3956D01*
Y4147D02*
X8357Y4121D01*
X8331Y4147D02*
Y4242D01*
X9017Y4966D02*
Y6337D01*
X8280D02*
X9017D01*
X9111Y5969D02*
Y6096D01*
X9047Y6033D02*
X9111Y6096D01*
X9047Y6033D02*
X9111Y5969D01*
X8280Y4966D02*
X9017D01*
X8280D02*
Y6337D01*
X8357Y5963D02*
Y6102D01*
X8331Y5842D02*
X8839D01*
Y5956D01*
X8928D01*
Y6109D01*
X8839D02*
X8928D01*
X8839D02*
Y6223D01*
X8331D02*
X8839D01*
X8331Y5937D02*
X8357Y5963D01*
X8331Y5842D02*
Y5937D01*
Y6128D02*
X8357Y6102D01*
X8331Y6128D02*
Y6223D01*
X4699Y292D02*
X4762Y356D01*
X4699Y292D02*
Y419D01*
X4762Y356D01*
X4915Y833D02*
X4978Y770D01*
X4915Y833D02*
X5042D01*
X4978Y770D02*
X5042Y833D01*
X4788Y741D02*
X5553D01*
X4788Y11D02*
Y741D01*
Y11D02*
X5553D01*
Y741D01*
X5078Y161D02*
X5128Y11D01*
X4828D02*
X4878Y161D01*
X5078D01*
X5453D02*
X5503Y11D01*
X5203D02*
X5253Y161D01*
X5453D01*
X3594Y292D02*
X3658Y356D01*
X3594Y292D02*
Y419D01*
X3658Y356D01*
X3810Y833D02*
X3874Y770D01*
X3810Y833D02*
X3937D01*
X3874Y770D02*
X3937Y833D01*
X3683Y741D02*
X4449D01*
X3683Y11D02*
Y741D01*
Y11D02*
X4449D01*
Y741D01*
X3974Y161D02*
X4024Y11D01*
X3723D02*
X3774Y161D01*
X3974D01*
X4349D02*
X4398Y11D01*
X4098D02*
X4149Y161D01*
X4349D01*
D15*
X15Y15D02*
Y9383D01*
X2426D01*
Y13D02*
Y9383D01*
X13Y13D02*
X2426D01*
D16*
X5029Y5220D02*
X5004Y5245D01*
X4953D01*
X4928Y5220D01*
Y5118D01*
X4953Y5093D01*
X5004D01*
X5029Y5118D01*
X5080Y5093D02*
X5131D01*
X5105D01*
Y5245D01*
X5080Y5220D01*
X6439Y7239D02*
Y7112D01*
X6464Y7087D01*
X6515D01*
X6541Y7112D01*
Y7239D01*
X6591Y7214D02*
X6617Y7239D01*
X6667D01*
X6693Y7214D01*
Y7188D01*
X6667Y7163D01*
X6642D01*
X6667D01*
X6693Y7137D01*
Y7112D01*
X6667Y7087D01*
X6617D01*
X6591Y7112D01*
X6528Y8623D02*
Y8496D01*
X6553Y8471D01*
X6604D01*
X6629Y8496D01*
Y8623D01*
X6782Y8471D02*
X6680D01*
X6782Y8572D01*
Y8598D01*
X6756Y8623D01*
X6706D01*
X6680Y8598D01*
X7493Y5690D02*
Y5563D01*
X7518Y5537D01*
X7569D01*
X7595Y5563D01*
Y5690D01*
X7645Y5537D02*
X7696D01*
X7671D01*
Y5690D01*
X7645Y5664D01*
X7645Y9131D02*
Y9284D01*
X7722D01*
X7747Y9258D01*
Y9207D01*
X7722Y9182D01*
X7645D01*
X7696D02*
X7747Y9131D01*
X7798Y9284D02*
Y9182D01*
X7849Y9131D01*
X7899Y9182D01*
Y9284D01*
X7950Y9131D02*
X8001D01*
X7976D01*
Y9284D01*
X7950Y9258D01*
X5486Y7049D02*
X5334D01*
Y7125D01*
X5359Y7150D01*
X5410D01*
X5436Y7125D01*
Y7049D01*
Y7099D02*
X5486Y7150D01*
Y7302D02*
Y7201D01*
X5385Y7302D01*
X5359D01*
X5334Y7277D01*
Y7226D01*
X5359Y7201D01*
X5486Y7455D02*
Y7353D01*
X5385Y7455D01*
X5359D01*
X5334Y7429D01*
Y7379D01*
X5359Y7353D01*
X5804Y5664D02*
X5652D01*
Y5740D01*
X5677Y5766D01*
X5728D01*
X5753Y5740D01*
Y5664D01*
Y5715D02*
X5804Y5766D01*
Y5918D02*
Y5817D01*
X5702Y5918D01*
X5677D01*
X5652Y5893D01*
Y5842D01*
X5677Y5817D01*
X5804Y5969D02*
Y6020D01*
Y5994D01*
X5652D01*
X5677Y5969D01*
X6236Y7252D02*
X6083D01*
Y7328D01*
X6109Y7353D01*
X6160D01*
X6185Y7328D01*
Y7252D01*
Y7303D02*
X6236Y7353D01*
Y7506D02*
Y7404D01*
X6134Y7506D01*
X6109D01*
X6083Y7480D01*
Y7430D01*
X6109Y7404D01*
Y7556D02*
X6083Y7582D01*
Y7633D01*
X6109Y7658D01*
X6210D01*
X6236Y7633D01*
Y7582D01*
X6210Y7556D01*
X6109D01*
X8382Y7252D02*
X8230D01*
Y7328D01*
X8255Y7353D01*
X8306D01*
X8331Y7328D01*
Y7252D01*
Y7303D02*
X8382Y7353D01*
Y7404D02*
Y7455D01*
Y7430D01*
X8230D01*
X8255Y7404D01*
X8357Y7531D02*
X8382Y7556D01*
Y7607D01*
X8357Y7633D01*
X8255D01*
X8230Y7607D01*
Y7556D01*
X8255Y7531D01*
X8280D01*
X8306Y7556D01*
Y7633D01*
X7747Y4610D02*
Y4762D01*
X7823D01*
X7849Y4737D01*
Y4686D01*
X7823Y4661D01*
X7747D01*
X7798D02*
X7849Y4610D01*
X7899D02*
X7950D01*
X7925D01*
Y4762D01*
X7899Y4737D01*
X8026D02*
X8052Y4762D01*
X8103D01*
X8128Y4737D01*
Y4712D01*
X8103Y4686D01*
X8128Y4661D01*
Y4636D01*
X8103Y4610D01*
X8052D01*
X8026Y4636D01*
Y4661D01*
X8052Y4686D01*
X8026Y4712D01*
Y4737D01*
X8052Y4686D02*
X8103D01*
X7887Y3480D02*
X7734D01*
Y3556D01*
X7760Y3581D01*
X7811D01*
X7836Y3556D01*
Y3480D01*
Y3531D02*
X7887Y3581D01*
Y3632D02*
Y3683D01*
Y3658D01*
X7734D01*
X7760Y3632D01*
X7734Y3759D02*
Y3861D01*
X7760D01*
X7861Y3759D01*
X7887D01*
X3226Y4305D02*
X3073D01*
Y4382D01*
X3099Y4407D01*
X3150D01*
X3175Y4382D01*
Y4305D01*
Y4356D02*
X3226Y4407D01*
Y4458D02*
Y4508D01*
Y4483D01*
X3073D01*
X3099Y4458D01*
X3073Y4686D02*
X3099Y4635D01*
X3150Y4585D01*
X3200D01*
X3226Y4610D01*
Y4661D01*
X3200Y4686D01*
X3175D01*
X3150Y4661D01*
Y4585D01*
X3238Y5677D02*
X3086D01*
Y5753D01*
X3112Y5779D01*
X3162D01*
X3188Y5753D01*
Y5677D01*
Y5728D02*
X3238Y5779D01*
Y5829D02*
Y5880D01*
Y5855D01*
X3086D01*
X3112Y5829D01*
X3086Y6058D02*
Y5956D01*
X3162D01*
X3137Y6007D01*
Y6032D01*
X3162Y6058D01*
X3213D01*
X3238Y6032D01*
Y5982D01*
X3213Y5956D01*
X7874Y1842D02*
X7722D01*
Y1918D01*
X7747Y1943D01*
X7798D01*
X7823Y1918D01*
Y1842D01*
Y1892D02*
X7874Y1943D01*
Y1994D02*
Y2045D01*
Y2019D01*
X7722D01*
X7747Y1994D01*
X7874Y2197D02*
X7722D01*
X7798Y2121D01*
Y2222D01*
X8293Y1854D02*
X8141D01*
Y1930D01*
X8166Y1956D01*
X8217D01*
X8242Y1930D01*
Y1854D01*
Y1905D02*
X8293Y1956D01*
Y2007D02*
Y2057D01*
Y2032D01*
X8141D01*
X8166Y2007D01*
Y2134D02*
X8141Y2159D01*
Y2210D01*
X8166Y2235D01*
X8192D01*
X8217Y2210D01*
Y2184D01*
Y2210D01*
X8242Y2235D01*
X8268D01*
X8293Y2210D01*
Y2159D01*
X8268Y2134D01*
X4585Y5791D02*
X4432D01*
Y5867D01*
X4458Y5893D01*
X4508D01*
X4534Y5867D01*
Y5791D01*
Y5842D02*
X4585Y5893D01*
Y5944D02*
Y5994D01*
Y5969D01*
X4432D01*
X4458Y5944D01*
X4585Y6172D02*
Y6071D01*
X4483Y6172D01*
X4458D01*
X4432Y6147D01*
Y6096D01*
X4458Y6071D01*
X4724Y8446D02*
X4572D01*
Y8522D01*
X4597Y8547D01*
X4648D01*
X4674Y8522D01*
Y8446D01*
Y8496D02*
X4724Y8547D01*
Y8598D02*
Y8649D01*
Y8623D01*
X4572D01*
X4597Y8598D01*
X4724Y8725D02*
Y8776D01*
Y8750D01*
X4572D01*
X4597Y8725D01*
X8814Y7315D02*
X8661D01*
Y7391D01*
X8687Y7417D01*
X8738D01*
X8763Y7391D01*
Y7315D01*
Y7366D02*
X8814Y7417D01*
X8788Y7468D02*
X8814Y7493D01*
Y7544D01*
X8788Y7569D01*
X8687D01*
X8661Y7544D01*
Y7493D01*
X8687Y7468D01*
X8712D01*
X8738Y7493D01*
Y7569D01*
X3899Y5461D02*
X3747D01*
Y5537D01*
X3772Y5563D01*
X3823D01*
X3848Y5537D01*
Y5461D01*
Y5512D02*
X3899Y5563D01*
X3747Y5613D02*
Y5715D01*
X3772D01*
X3873Y5613D01*
X3899D01*
X7328Y3531D02*
X7176D01*
Y3607D01*
X7201Y3632D01*
X7252D01*
X7277Y3607D01*
Y3531D01*
Y3581D02*
X7328Y3632D01*
X7176Y3785D02*
X7201Y3734D01*
X7252Y3683D01*
X7302D01*
X7328Y3708D01*
Y3759D01*
X7302Y3785D01*
X7277D01*
X7252Y3759D01*
Y3683D01*
X6769Y3569D02*
X6617D01*
Y3645D01*
X6642Y3670D01*
X6693D01*
X6718Y3645D01*
Y3569D01*
Y3620D02*
X6769Y3670D01*
X6617Y3823D02*
Y3721D01*
X6693D01*
X6668Y3772D01*
Y3797D01*
X6693Y3823D01*
X6744D01*
X6769Y3797D01*
Y3746D01*
X6744Y3721D01*
X6236Y5715D02*
X6083D01*
Y5791D01*
X6109Y5817D01*
X6160D01*
X6185Y5791D01*
Y5715D01*
Y5766D02*
X6236Y5817D01*
Y5944D02*
X6083D01*
X6160Y5867D01*
Y5969D01*
X7429Y1905D02*
X7277D01*
Y1981D01*
X7303Y2007D01*
X7353D01*
X7379Y1981D01*
Y1905D01*
Y1956D02*
X7429Y2007D01*
X7303Y2057D02*
X7277Y2083D01*
Y2134D01*
X7303Y2159D01*
X7328D01*
X7353Y2134D01*
Y2108D01*
Y2134D01*
X7379Y2159D01*
X7404D01*
X7429Y2134D01*
Y2083D01*
X7404Y2057D01*
X6668Y152D02*
Y305D01*
X6744D01*
X6769Y279D01*
Y229D01*
X6744Y203D01*
X6668D01*
X6718D02*
X6769Y152D01*
X6921D02*
X6820D01*
X6921Y254D01*
Y279D01*
X6896Y305D01*
X6845D01*
X6820Y279D01*
X2781Y2781D02*
X2629D01*
Y2858D01*
X2654Y2883D01*
X2705D01*
X2730Y2858D01*
Y2781D01*
Y2832D02*
X2781Y2883D01*
Y2934D02*
Y2984D01*
Y2959D01*
X2629D01*
X2654Y2934D01*
X2692Y5715D02*
Y5817D01*
X2667Y5842D01*
X2616D01*
X2591Y5817D01*
Y5715D01*
X2616Y5690D01*
X2667D01*
X2642Y5740D02*
X2692Y5690D01*
X2667D02*
X2692Y5715D01*
X2819Y5690D02*
Y5842D01*
X2743Y5766D01*
X2845D01*
X6817Y7854D02*
Y7955D01*
X6792Y7981D01*
X6741D01*
X6716Y7955D01*
Y7854D01*
X6741Y7828D01*
X6792D01*
X6767Y7879D02*
X6817Y7828D01*
X6792D02*
X6817Y7854D01*
X6868Y7955D02*
X6894Y7981D01*
X6944D01*
X6970Y7955D01*
Y7930D01*
X6944Y7904D01*
X6919D01*
X6944D01*
X6970Y7879D01*
Y7854D01*
X6944Y7828D01*
X6894D01*
X6868Y7854D01*
X2616Y6970D02*
Y7071D01*
X2591Y7097D01*
X2540D01*
X2515Y7071D01*
Y6970D01*
X2540Y6944D01*
X2591D01*
X2565Y6995D02*
X2616Y6944D01*
X2591D02*
X2616Y6970D01*
X2769Y6944D02*
X2667D01*
X2769Y7046D01*
Y7071D01*
X2743Y7097D01*
X2692D01*
X2667Y7071D01*
X4737Y4940D02*
Y5042D01*
X4712Y5067D01*
X4661D01*
X4636Y5042D01*
Y4940D01*
X4661Y4915D01*
X4712D01*
X4686Y4966D02*
X4737Y4915D01*
X4712D02*
X4737Y4940D01*
X4788Y4915D02*
X4839D01*
X4813D01*
Y5067D01*
X4788Y5042D01*
X8725Y6426D02*
Y6579D01*
X8801D01*
X8827Y6553D01*
Y6502D01*
X8801Y6477D01*
X8725D01*
X8979Y6426D02*
X8877D01*
X8979Y6528D01*
Y6553D01*
X8953Y6579D01*
X8903D01*
X8877Y6553D01*
X8788Y4420D02*
Y4572D01*
X8865D01*
X8890Y4547D01*
Y4496D01*
X8865Y4470D01*
X8788D01*
X8941Y4420D02*
X8992D01*
X8966D01*
Y4572D01*
X8941Y4547D01*
X3658Y8509D02*
X3607D01*
X3581Y8484D01*
Y8382D01*
X3607Y8357D01*
X3658D01*
X3683Y8382D01*
Y8484D01*
X3658Y8509D01*
X3734D02*
Y8382D01*
X3759Y8357D01*
X3810D01*
X3835Y8382D01*
Y8509D01*
X3886D02*
X3988D01*
X3937D01*
Y8357D01*
X2464Y1029D02*
Y876D01*
X2566D01*
X2616D02*
Y1029D01*
X2667Y978D01*
X2718Y1029D01*
Y876D01*
X2769Y1029D02*
X2870D01*
Y1003D01*
X2769Y902D01*
Y876D01*
X2921Y1003D02*
X2946Y1029D01*
X2997D01*
X3023Y1003D01*
Y978D01*
X2997Y952D01*
X3023Y927D01*
Y902D01*
X2997Y876D01*
X2946D01*
X2921Y902D01*
Y927D01*
X2946Y952D01*
X2921Y978D01*
Y1003D01*
X2946Y952D02*
X2997D01*
X3175Y876D02*
X3073D01*
X3175Y978D01*
Y1003D01*
X3150Y1029D01*
X3099D01*
X3073Y1003D01*
X3302Y876D02*
Y1029D01*
X3226Y952D01*
X3327D01*
X4521Y64D02*
Y114D01*
Y89D01*
X4674D01*
Y64D01*
Y114D01*
Y190D02*
X4521D01*
X4674Y292D01*
X4521D01*
X4851Y6236D02*
Y6083D01*
X4928D01*
X4953Y6109D01*
Y6210D01*
X4928Y6236D01*
X4851D01*
X5004Y6083D02*
X5055D01*
X5029D01*
Y6236D01*
X5004Y6210D01*
X5232Y6083D02*
X5131D01*
X5232Y6185D01*
Y6210D01*
X5207Y6236D01*
X5156D01*
X5131Y6210D01*
X3543Y7912D02*
Y7760D01*
X3620D01*
X3645Y7785D01*
Y7887D01*
X3620Y7912D01*
X3543D01*
X3696Y7760D02*
X3746D01*
X3721D01*
Y7912D01*
X3696Y7887D01*
X3823Y7760D02*
X3873D01*
X3848D01*
Y7912D01*
X3823Y7887D01*
X2858Y7645D02*
Y7493D01*
X2934D01*
X2959Y7518D01*
Y7620D01*
X2934Y7645D01*
X2858D01*
X3010Y7493D02*
X3061D01*
X3035D01*
Y7645D01*
X3010Y7620D01*
X3137D02*
X3162Y7645D01*
X3213D01*
X3238Y7620D01*
Y7518D01*
X3213Y7493D01*
X3162D01*
X3137Y7518D01*
Y7620D01*
X7760Y6782D02*
Y6629D01*
X7836D01*
X7861Y6655D01*
Y6756D01*
X7836Y6782D01*
X7760D01*
X7912Y6655D02*
X7937Y6629D01*
X7988D01*
X8014Y6655D01*
Y6756D01*
X7988Y6782D01*
X7937D01*
X7912Y6756D01*
Y6731D01*
X7937Y6706D01*
X8014D01*
X7404Y6147D02*
Y5994D01*
X7480D01*
X7506Y6020D01*
Y6121D01*
X7480Y6147D01*
X7404D01*
X7556Y6121D02*
X7582Y6147D01*
X7633D01*
X7658Y6121D01*
Y6096D01*
X7633Y6071D01*
X7658Y6045D01*
Y6020D01*
X7633Y5994D01*
X7582D01*
X7556Y6020D01*
Y6045D01*
X7582Y6071D01*
X7556Y6096D01*
Y6121D01*
X7582Y6071D02*
X7633D01*
X6058Y2794D02*
Y2642D01*
X6134D01*
X6160Y2667D01*
Y2769D01*
X6134Y2794D01*
X6058D01*
X6210D02*
X6312D01*
Y2769D01*
X6210Y2667D01*
Y2642D01*
X6769Y1803D02*
Y1651D01*
X6845D01*
X6871Y1676D01*
Y1778D01*
X6845Y1803D01*
X6769D01*
X7023D02*
X6972Y1778D01*
X6921Y1727D01*
Y1676D01*
X6947Y1651D01*
X6998D01*
X7023Y1676D01*
Y1702D01*
X6998Y1727D01*
X6921D01*
X5855Y1664D02*
Y1511D01*
X5931D01*
X5956Y1537D01*
Y1638D01*
X5931Y1664D01*
X5855D01*
X6109D02*
X6007D01*
Y1588D01*
X6058Y1613D01*
X6083D01*
X6109Y1588D01*
Y1537D01*
X6083Y1511D01*
X6032D01*
X6007Y1537D01*
X5271Y1422D02*
Y1270D01*
X5347D01*
X5372Y1295D01*
Y1397D01*
X5347Y1422D01*
X5271D01*
X5499Y1270D02*
Y1422D01*
X5423Y1346D01*
X5524D01*
X4623Y1397D02*
Y1245D01*
X4699D01*
X4724Y1270D01*
Y1372D01*
X4699Y1397D01*
X4623D01*
X4775Y1372D02*
X4801Y1397D01*
X4851D01*
X4877Y1372D01*
Y1346D01*
X4851Y1321D01*
X4826D01*
X4851D01*
X4877Y1295D01*
Y1270D01*
X4851Y1245D01*
X4801D01*
X4775Y1270D01*
X3975Y1410D02*
Y1257D01*
X4051D01*
X4077Y1283D01*
Y1384D01*
X4051Y1410D01*
X3975D01*
X4229Y1257D02*
X4127D01*
X4229Y1359D01*
Y1384D01*
X4204Y1410D01*
X4153D01*
X4127Y1384D01*
X3404Y1410D02*
Y1257D01*
X3480D01*
X3505Y1283D01*
Y1384D01*
X3480Y1410D01*
X3404D01*
X3556Y1257D02*
X3607D01*
X3581D01*
Y1410D01*
X3556Y1384D01*
X7480Y8687D02*
X7455Y8712D01*
X7404D01*
X7379Y8687D01*
Y8585D01*
X7404Y8560D01*
X7455D01*
X7480Y8585D01*
X7531D02*
X7556Y8560D01*
X7607D01*
X7633Y8585D01*
Y8687D01*
X7607Y8712D01*
X7556D01*
X7531Y8687D01*
Y8661D01*
X7556Y8636D01*
X7633D01*
X6515Y6782D02*
X6490Y6807D01*
X6439D01*
X6414Y6782D01*
Y6680D01*
X6439Y6655D01*
X6490D01*
X6515Y6680D01*
X6566Y6782D02*
X6591Y6807D01*
X6642D01*
X6667Y6782D01*
Y6756D01*
X6642Y6731D01*
X6667Y6706D01*
Y6680D01*
X6642Y6655D01*
X6591D01*
X6566Y6680D01*
Y6706D01*
X6591Y6731D01*
X6566Y6756D01*
Y6782D01*
X6591Y6731D02*
X6642D01*
X5969Y8433D02*
X5944Y8458D01*
X5893D01*
X5867Y8433D01*
Y8331D01*
X5893Y8306D01*
X5944D01*
X5969Y8331D01*
X6020Y8458D02*
X6121D01*
Y8433D01*
X6020Y8331D01*
Y8306D01*
X5245Y8915D02*
X5220Y8941D01*
X5169D01*
X5144Y8915D01*
Y8814D01*
X5169Y8788D01*
X5220D01*
X5245Y8814D01*
X5397Y8941D02*
X5347Y8915D01*
X5296Y8865D01*
Y8814D01*
X5321Y8788D01*
X5372D01*
X5397Y8814D01*
Y8839D01*
X5372Y8865D01*
X5296D01*
X8877Y1918D02*
X8852Y1892D01*
Y1842D01*
X8877Y1816D01*
X8979D01*
X9004Y1842D01*
Y1892D01*
X8979Y1918D01*
X8852Y2070D02*
Y1968D01*
X8928D01*
X8903Y2019D01*
Y2045D01*
X8928Y2070D01*
X8979D01*
X9004Y2045D01*
Y1994D01*
X8979Y1968D01*
X8903Y2477D02*
X8877Y2451D01*
Y2400D01*
X8903Y2375D01*
X9004D01*
X9030Y2400D01*
Y2451D01*
X9004Y2477D01*
X9030Y2603D02*
X8877D01*
X8954Y2527D01*
Y2629D01*
X6363Y660D02*
X6337Y686D01*
X6287D01*
X6261Y660D01*
Y559D01*
X6287Y533D01*
X6337D01*
X6363Y559D01*
X6413Y660D02*
X6439Y686D01*
X6490D01*
X6515Y660D01*
Y635D01*
X6490Y610D01*
X6464D01*
X6490D01*
X6515Y584D01*
Y559D01*
X6490Y533D01*
X6439D01*
X6413Y559D01*
X7455Y914D02*
X7430Y940D01*
X7379D01*
X7353Y914D01*
Y813D01*
X7379Y787D01*
X7430D01*
X7455Y813D01*
X7607Y787D02*
X7506D01*
X7607Y889D01*
Y914D01*
X7582Y940D01*
X7531D01*
X7506Y914D01*
X3543Y165D02*
Y64D01*
X3442Y165D01*
X3416D01*
X3391Y140D01*
Y89D01*
X3416Y64D01*
X3543Y292D02*
X3391D01*
X3467Y216D01*
Y317D01*
X3391Y368D02*
X3492D01*
X3543Y419D01*
X3492Y470D01*
X3391D01*
D17*
X6317Y8915D02*
D03*
X6726Y813D02*
D03*
D18*
X4811Y4204D02*
D03*
D19*
X7709Y1206D02*
D03*
D20*
X5397Y1506D02*
D03*
X4750Y1480D02*
D03*
D21*
X4115Y2393D02*
D03*
X3492Y2406D02*
D03*
M02*
