G04*
G04 #@! TF.GenerationSoftware,Altium Limited,Altium Designer,20.0.13 (296)*
G04*
G04 Layer_Color=128*
%FSLAX42Y42*%
%MOMM*%
G71*
G01*
G75*
%ADD82C,0.05*%
D82*
X6117Y8915D02*
X6197D01*
X6157Y8875D02*
Y8955D01*
X5777Y8915D02*
X5857D01*
X5817Y8875D02*
Y8955D01*
X5100Y9131D02*
X5180D01*
X5140Y9091D02*
Y9171D01*
X5361Y9131D02*
X5441D01*
X5401Y9091D02*
Y9171D01*
X4602Y8103D02*
X4694D01*
X4648Y8057D02*
Y8148D01*
X4602Y9119D02*
X4694D01*
X4648Y9073D02*
Y9164D01*
X3630Y9042D02*
X3762D01*
X3696Y8976D02*
Y9108D01*
X4011Y9042D02*
X4143D01*
X4077Y8976D02*
Y9108D01*
X4146Y8103D02*
X4251D01*
X4198Y8050D02*
Y8155D01*
X3192Y8103D02*
X3297D01*
X3244Y8050D02*
Y8155D01*
X2627Y7811D02*
X2707D01*
X2667Y7771D02*
Y7850D01*
X2627Y7303D02*
X2707D01*
X2667Y7262D02*
Y7343D01*
X2533Y4254D02*
X2674D01*
X2603Y4185D02*
Y4324D01*
X2533Y4799D02*
X2674D01*
X2603Y4729D02*
Y4869D01*
X2533Y5344D02*
X2674D01*
X2603Y5274D02*
Y5415D01*
X2659Y2375D02*
X2751D01*
X2705Y2329D02*
Y2421D01*
X2659Y3391D02*
X2751D01*
X2705Y3345D02*
Y3437D01*
X3104Y4991D02*
X3195D01*
X3150Y4945D02*
Y5037D01*
X3104Y3975D02*
X3195D01*
X3150Y3929D02*
Y4021D01*
X3117Y5359D02*
X3208D01*
X3162Y5314D02*
Y5405D01*
X3117Y6375D02*
X3208D01*
X3162Y6330D02*
Y6421D01*
X3725Y4116D02*
X3845D01*
X3785Y4056D02*
Y4176D01*
X3725Y7175D02*
X3845D01*
X3785Y7115D02*
Y7236D01*
X5094Y4204D02*
X5194D01*
X5144Y4154D02*
Y4254D01*
X5856Y4204D02*
X5956D01*
X5906Y4154D02*
Y4254D01*
X4400Y4839D02*
X4490D01*
X4445Y4794D02*
Y4884D01*
X4400Y5099D02*
X4490D01*
X4445Y5054D02*
Y5144D01*
X4400Y4579D02*
X4490D01*
X4445Y4534D02*
Y4624D01*
X4463Y5486D02*
X4554D01*
X4508Y5441D02*
Y5532D01*
X4463Y6502D02*
X4554D01*
X4508Y6457D02*
Y6548D01*
X5182Y5728D02*
X5282D01*
X5232Y5678D02*
Y5778D01*
X4928Y5728D02*
X5028D01*
X4978Y5678D02*
Y5778D01*
X6114Y5334D02*
X6205D01*
X6160Y5288D02*
Y5380D01*
X6114Y6350D02*
X6205D01*
X6160Y6304D02*
Y6396D01*
X5682Y5334D02*
X5773D01*
X5728Y5288D02*
Y5380D01*
X5682Y6350D02*
X5773D01*
X5728Y6304D02*
Y6396D01*
X6370Y6934D02*
X6450D01*
X6410Y6894D02*
Y6974D01*
X6631Y6934D02*
X6711D01*
X6671Y6894D02*
Y6974D01*
X5364Y6756D02*
X5456D01*
X5410Y6711D02*
Y6802D01*
X5364Y7772D02*
X5456D01*
X5410Y7727D02*
Y7818D01*
X6114Y6934D02*
X6205D01*
X6160Y6888D02*
Y6980D01*
X6114Y7950D02*
X6205D01*
X6160Y7904D02*
Y7996D01*
X7227Y8661D02*
X7307D01*
X7267Y8621D02*
Y8701D01*
X6967Y8661D02*
X7047D01*
X7007Y8621D02*
Y8701D01*
X6818Y9068D02*
X6898D01*
X6858Y9028D02*
Y9108D01*
X7072Y9068D02*
X7152D01*
X7112Y9028D02*
Y9108D01*
X7326Y9068D02*
X7406D01*
X7366Y9028D02*
Y9108D01*
X8260Y7938D02*
X8352D01*
X8306Y7892D02*
Y7983D01*
X8260Y6921D02*
X8352D01*
X8306Y6876D02*
Y6967D01*
X8692Y6934D02*
X8783D01*
X8738Y6888D02*
Y6980D01*
X8692Y7950D02*
X8783D01*
X8738Y7904D02*
Y7996D01*
X8037Y6477D02*
X8117D01*
X8077Y6437D02*
Y6517D01*
X7529Y6477D02*
X7609D01*
X7569Y6437D02*
Y6517D01*
X6729Y6083D02*
X6809D01*
X6769Y6043D02*
Y6123D01*
X7237Y6083D02*
X7317D01*
X7277Y6043D02*
Y6123D01*
X7371Y4686D02*
X7463D01*
X7417Y4641D02*
Y4732D01*
X8387Y4686D02*
X8479D01*
X8433Y4641D02*
Y4732D01*
X8519Y4051D02*
X8651D01*
X8585Y3985D02*
Y4117D01*
X8519Y3670D02*
X8651D01*
X8585Y3604D02*
Y3736D01*
X8519Y3289D02*
X8651D01*
X8585Y3223D02*
Y3355D01*
X6647Y3162D02*
X6739D01*
X6693Y3117D02*
Y3208D01*
X6647Y4178D02*
X6739D01*
X6693Y4133D02*
Y4224D01*
X7206Y4153D02*
X7297D01*
X7252Y4107D02*
Y4199D01*
X7206Y3137D02*
X7297D01*
X7252Y3091D02*
Y3183D01*
X7765Y3150D02*
X7856D01*
X7811Y3104D02*
Y3195D01*
X7765Y4166D02*
X7856D01*
X7811Y4120D02*
Y4211D01*
X8647Y2645D02*
X8727D01*
X8687Y2605D02*
Y2685D01*
X8647Y2385D02*
X8727D01*
X8687Y2345D02*
Y2425D01*
X8621Y1826D02*
X8701D01*
X8661Y1786D02*
Y1866D01*
X8621Y2086D02*
X8701D01*
X8661Y2046D02*
Y2126D01*
X8171Y2553D02*
X8263D01*
X8217Y2507D02*
Y2598D01*
X8171Y1537D02*
X8263D01*
X8217Y1491D02*
Y1582D01*
X7752Y1524D02*
X7844D01*
X7798Y1478D02*
Y1570D01*
X7752Y2540D02*
X7844D01*
X7798Y2494D02*
Y2586D01*
X6628Y2489D02*
X6707D01*
X6668Y2449D02*
Y2529D01*
X6119Y2489D02*
X6199D01*
X6160Y2449D02*
Y2529D01*
X6221Y1880D02*
X6301D01*
X6261Y1840D02*
Y1920D01*
X6221Y1372D02*
X6301D01*
X6261Y1332D02*
Y1412D01*
X6996Y1537D02*
X7076D01*
X7036Y1497D02*
Y1577D01*
X6996Y1029D02*
X7076D01*
X7036Y989D02*
Y1069D01*
X7669Y1046D02*
X7749D01*
X7709Y1006D02*
Y1086D01*
X7669Y706D02*
X7749D01*
X7709Y666D02*
Y746D01*
X6526Y813D02*
X6606D01*
X6566Y773D02*
Y853D01*
X6186Y813D02*
X6266D01*
X6226Y773D02*
Y853D01*
X7257Y229D02*
X7348D01*
X7303Y183D02*
Y274D01*
X6241Y229D02*
X6332D01*
X6287Y183D02*
Y274D01*
X5312Y2898D02*
X5483D01*
X5397Y2813D02*
Y2983D01*
X5312Y1014D02*
X5483D01*
X5397Y929D02*
Y1099D01*
X4665Y2872D02*
X4835D01*
X4750Y2787D02*
Y2957D01*
X4665Y988D02*
X4835D01*
X4750Y903D02*
Y1073D01*
X4030Y1001D02*
X4200D01*
X4115Y916D02*
Y1086D01*
X4030Y2885D02*
X4200D01*
X4115Y2800D02*
Y2970D01*
X3408Y1014D02*
X3578D01*
X3492Y929D02*
Y1099D01*
X3408Y2898D02*
X3578D01*
X3492Y2813D02*
Y2983D01*
X8519Y6033D02*
X8651D01*
X8585Y5966D02*
Y6099D01*
X8519Y5651D02*
X8651D01*
X8585Y5585D02*
Y5718D01*
X8519Y5271D02*
X8651D01*
X8585Y5204D02*
Y5337D01*
X7308Y2527D02*
X7399D01*
X7353Y2482D02*
Y2573D01*
X7308Y1511D02*
X7399D01*
X7353Y1466D02*
Y1557D01*
X2617Y6681D02*
X2717D01*
X2667Y6631D02*
Y6731D01*
X2617Y6452D02*
X2717D01*
X2667Y6402D02*
Y6502D01*
X2617Y6223D02*
X2717D01*
X2667Y6173D02*
Y6273D01*
X5293Y356D02*
X5425D01*
X5359Y290D02*
Y422D01*
X4912Y356D02*
X5044D01*
X4978Y290D02*
Y422D01*
X4188Y356D02*
X4321D01*
X4254Y290D02*
Y422D01*
X3807Y356D02*
X3940D01*
X3874Y290D02*
Y422D01*
X2663Y1867D02*
X2773D01*
X2718Y1812D02*
Y1922D01*
X2663Y1613D02*
X2773D01*
X2718Y1558D02*
Y1668D01*
X2663Y1359D02*
X2773D01*
X2718Y1304D02*
Y1414D01*
X694Y1321D02*
X1694D01*
X1194Y821D02*
Y1821D01*
X694Y3023D02*
X1694D01*
X1194Y2523D02*
Y3523D01*
X694Y4724D02*
X1694D01*
X1194Y4224D02*
Y5224D01*
X694Y6426D02*
X1694D01*
X1194Y5926D02*
Y6926D01*
X694Y8128D02*
X1694D01*
X1194Y7628D02*
Y8628D01*
X8463Y457D02*
X8783D01*
X8623Y297D02*
Y617D01*
X2797Y457D02*
X3117D01*
X2957Y297D02*
Y617D01*
X2797Y8941D02*
X3117D01*
X2957Y8781D02*
Y9101D01*
X8463Y8941D02*
X8783D01*
X8623Y8781D02*
Y9101D01*
X6794Y7506D02*
X6884D01*
X6839Y7461D02*
Y7551D01*
X7314Y7506D02*
X7404D01*
X7359Y7461D02*
Y7551D01*
X7054Y7506D02*
X7144D01*
X7099Y7461D02*
Y7551D01*
X7143Y7261D02*
X7214D01*
X7178Y7225D02*
Y7296D01*
X6937Y6668D02*
X7008D01*
X6972Y6632D02*
Y6703D01*
X7102Y5461D02*
X7173D01*
X7137Y5425D02*
Y5497D01*
X6622Y5040D02*
X6693D01*
X6657Y5004D02*
Y5076D01*
X8054Y3467D02*
X8125D01*
X8090Y3432D02*
Y3503D01*
X6060Y3162D02*
X6132D01*
X6096Y3127D02*
Y3198D01*
X6441Y5410D02*
X6513D01*
X6477Y5375D02*
Y5446D01*
X5857Y7950D02*
X5928D01*
X5893Y7915D02*
Y7986D01*
X6988Y8064D02*
X7059D01*
X7023Y8029D02*
Y8100D01*
X7051Y6909D02*
X7122D01*
X7087Y6873D02*
Y6944D01*
X5095Y8280D02*
X5166D01*
X5131Y8245D02*
Y8316D01*
M02*
