G04*
G04 #@! TF.GenerationSoftware,Altium Limited,Altium Designer,20.0.13 (296)*
G04*
G04 Layer_Color=16711935*
%FSLAX42Y42*%
%MOMM*%
G71*
G01*
G75*
%ADD26C,1.70*%
%ADD27O,1.40X1.80*%
%ADD29C,2.74*%
G04:AMPARAMS|DCode=30|XSize=2.74mm|YSize=2.74mm|CornerRadius=0.42mm|HoleSize=0mm|Usage=FLASHONLY|Rotation=90.000|XOffset=0mm|YOffset=0mm|HoleType=Round|Shape=RoundedRectangle|*
%AMROUNDEDRECTD30*
21,1,2.74,1.91,0,0,90.0*
21,1,1.91,2.74,0,0,90.0*
1,1,0.84,0.95,0.95*
1,1,0.84,0.95,-0.95*
1,1,0.84,-0.95,-0.95*
1,1,0.84,-0.95,0.95*
%
%ADD30ROUNDEDRECTD30*%
%ADD31C,1.75*%
%ADD32R,2.30X2.30*%
%ADD33C,2.30*%
%ADD34O,2.60X2.20*%
%ADD35C,2.20*%
%ADD36C,1.60*%
%ADD37R,1.60X1.60*%
%ADD38C,1.80*%
%ADD39C,1.50*%
%ADD40R,1.50X1.50*%
G04:AMPARAMS|DCode=41|XSize=2.74mm|YSize=2.74mm|CornerRadius=0.42mm|HoleSize=0mm|Usage=FLASHONLY|Rotation=180.000|XOffset=0mm|YOffset=0mm|HoleType=Round|Shape=RoundedRectangle|*
%AMROUNDEDRECTD41*
21,1,2.74,1.91,0,0,180.0*
21,1,1.91,2.74,0,0,180.0*
1,1,0.84,-0.95,0.95*
1,1,0.84,0.95,0.95*
1,1,0.84,0.95,-0.95*
1,1,0.84,-0.95,-0.95*
%
%ADD41ROUNDEDRECTD41*%
%ADD42O,1.80X1.40*%
%ADD43C,3.00*%
%ADD44R,3.00X3.00*%
%ADD45R,1.80X1.80*%
%ADD46R,1.90X1.90*%
%ADD47C,1.90*%
%ADD48R,14.20X14.20*%
%ADD49C,8.20*%
%ADD50R,1.60X1.60*%
%ADD51C,1.47*%
D26*
X6157Y8915D02*
D03*
X5817D02*
D03*
X2667Y7811D02*
D03*
Y7303D02*
D03*
X8077Y6477D02*
D03*
X7569D02*
D03*
X6769Y6083D02*
D03*
X7277D02*
D03*
X6668Y2489D02*
D03*
X6160D02*
D03*
X6261Y1880D02*
D03*
Y1372D02*
D03*
X7036Y1537D02*
D03*
Y1029D02*
D03*
X7709Y1046D02*
D03*
Y706D02*
D03*
X6566Y813D02*
D03*
X6226D02*
D03*
D27*
X5140Y9131D02*
D03*
X5401D02*
D03*
X6410Y6934D02*
D03*
X6671D02*
D03*
X7267Y8661D02*
D03*
X7007D02*
D03*
D29*
X4648Y8103D02*
D03*
Y9119D02*
D03*
X3696Y9042D02*
D03*
X2705Y2375D02*
D03*
Y3391D02*
D03*
X3150Y4991D02*
D03*
Y3975D02*
D03*
X3162Y5359D02*
D03*
Y6375D02*
D03*
X4508Y5486D02*
D03*
Y6502D02*
D03*
X6160Y5334D02*
D03*
Y6350D02*
D03*
X5728Y5334D02*
D03*
Y6350D02*
D03*
X5410Y6756D02*
D03*
Y7772D02*
D03*
X6160Y6934D02*
D03*
Y7950D02*
D03*
X8306Y7938D02*
D03*
Y6921D02*
D03*
X8738Y6934D02*
D03*
Y7950D02*
D03*
X7417Y4686D02*
D03*
X8433D02*
D03*
X8585Y3670D02*
D03*
Y3289D02*
D03*
X6693Y3162D02*
D03*
Y4178D02*
D03*
X7252Y4153D02*
D03*
Y3137D02*
D03*
X7811Y3150D02*
D03*
Y4166D02*
D03*
X8217Y2553D02*
D03*
Y1537D02*
D03*
X7798Y1524D02*
D03*
Y2540D02*
D03*
X7303Y229D02*
D03*
X6287D02*
D03*
X8585Y5651D02*
D03*
Y5271D02*
D03*
X7353Y2527D02*
D03*
Y1511D02*
D03*
X5359Y356D02*
D03*
X4254D02*
D03*
D30*
X4077Y9042D02*
D03*
X4978Y356D02*
D03*
X3874D02*
D03*
D31*
X4198Y8103D02*
D03*
X3244D02*
D03*
D32*
X2603Y4254D02*
D03*
D33*
Y4799D02*
D03*
Y5344D02*
D03*
D34*
X3785Y4116D02*
D03*
Y7175D02*
D03*
D35*
X5144Y4204D02*
D03*
X5906D02*
D03*
D36*
X4445Y4839D02*
D03*
Y5099D02*
D03*
X7359Y7506D02*
D03*
X7099D02*
D03*
D37*
X4445Y4579D02*
D03*
D38*
X5232Y5728D02*
D03*
X4978D02*
D03*
X2667Y6681D02*
D03*
Y6452D02*
D03*
D39*
X6858Y9068D02*
D03*
X7112D02*
D03*
D40*
X7366D02*
D03*
D41*
X8585Y4051D02*
D03*
Y6033D02*
D03*
D42*
X8687Y2645D02*
D03*
Y2385D02*
D03*
X8661Y1826D02*
D03*
Y2086D02*
D03*
D43*
X5397Y2898D02*
D03*
X4750Y2872D02*
D03*
X4115Y1001D02*
D03*
X3492Y1014D02*
D03*
D44*
X5397D02*
D03*
X4750Y988D02*
D03*
X4115Y2885D02*
D03*
X3492Y2898D02*
D03*
D45*
X2667Y6223D02*
D03*
D46*
X2718Y1867D02*
D03*
D47*
Y1613D02*
D03*
Y1359D02*
D03*
D48*
X1194Y1321D02*
D03*
Y3023D02*
D03*
Y4724D02*
D03*
Y6426D02*
D03*
Y8128D02*
D03*
D49*
X8623Y457D02*
D03*
X2957D02*
D03*
Y8941D02*
D03*
X8623D02*
D03*
D50*
X6839Y7506D02*
D03*
D51*
X7178Y7261D02*
D03*
X6972Y6668D02*
D03*
X7137Y5461D02*
D03*
X6657Y5040D02*
D03*
X8090Y3467D02*
D03*
X6096Y3162D02*
D03*
X6477Y5410D02*
D03*
X5893Y7950D02*
D03*
X7023Y8064D02*
D03*
X7087Y6909D02*
D03*
X5131Y8280D02*
D03*
M02*
