G04*
G04 #@! TF.GenerationSoftware,Altium Limited,Altium Designer,20.0.13 (296)*
G04*
G04 Layer_Color=2752767*
%FSLAX42Y42*%
%MOMM*%
G71*
G01*
G75*
%ADD82C,0.05*%
%ADD83C,0.07*%
%ADD84C,0.03*%
D82*
X6136Y8895D02*
Y8936D01*
X6177D01*
Y8895D01*
X6136D01*
X5796D02*
Y8936D01*
X5837D01*
Y8895D01*
X5796D01*
X5120Y9111D02*
Y9152D01*
X5161D01*
Y9111D01*
X5120D01*
X5380D02*
Y9152D01*
X5421D01*
Y9111D01*
X5380D01*
X3696Y9022D02*
X3675Y9063D01*
X3716D01*
X3696Y9022D01*
X4077D02*
X4056Y9063D01*
X4097D01*
X4077Y9022D01*
X4198Y8082D02*
X4208Y8092D01*
X4218D01*
X4208Y8103D01*
X4218Y8113D01*
X4208D01*
X4198Y8123D01*
X4188Y8113D01*
X4178D01*
X4188Y8103D01*
X4178Y8092D01*
X4188D01*
X4198Y8082D01*
X3244D02*
X3254Y8092D01*
X3264D01*
X3254Y8103D01*
X3264Y8113D01*
X3254D01*
X3244Y8123D01*
X3234Y8113D01*
X3224D01*
X3234Y8103D01*
X3224Y8092D01*
X3234D01*
X3244Y8082D01*
X2647Y7790D02*
Y7831D01*
X2687D01*
Y7790D01*
X2647D01*
Y7282D02*
Y7323D01*
X2687D01*
Y7282D01*
X2647D01*
X2583Y4234D02*
X2593Y4254D01*
X2583Y4275D01*
X2603Y4265D01*
X2624Y4275D01*
X2614Y4254D01*
X2624Y4234D01*
X2603Y4244D01*
X2583Y4234D01*
Y4779D02*
X2593Y4799D01*
X2583Y4820D01*
X2603Y4810D01*
X2624Y4820D01*
X2614Y4799D01*
X2624Y4779D01*
X2603Y4789D01*
X2583Y4779D01*
Y5324D02*
X2593Y5344D01*
X2583Y5365D01*
X2603Y5355D01*
X2624Y5365D01*
X2614Y5344D01*
X2624Y5324D01*
X2603Y5334D01*
X2583Y5324D01*
X3774Y4105D02*
Y4095D01*
X3795D01*
Y4105D01*
X3805D01*
Y4126D01*
X3795D01*
Y4136D01*
X3774D01*
Y4126D01*
X3764D01*
Y4105D01*
X3774D01*
Y7165D02*
Y7155D01*
X3795D01*
Y7165D01*
X3805D01*
Y7186D01*
X3795D01*
Y7196D01*
X3774D01*
Y7186D01*
X3764D01*
Y7165D01*
X3774D01*
X5123Y4183D02*
X5133D01*
X5144Y4194D01*
X5154Y4183D01*
X5164D01*
Y4194D01*
X5154Y4204D01*
X5164Y4214D01*
Y4224D01*
X5154D01*
X5144Y4214D01*
X5133Y4224D01*
X5123D01*
Y4214D01*
X5133Y4204D01*
X5123Y4194D01*
Y4183D01*
X5885D02*
X5895D01*
X5906Y4194D01*
X5916Y4183D01*
X5926D01*
Y4194D01*
X5916Y4204D01*
X5926Y4214D01*
Y4224D01*
X5916D01*
X5906Y4214D01*
X5895Y4224D01*
X5885D01*
Y4214D01*
X5895Y4204D01*
X5885Y4194D01*
Y4183D01*
X4425Y4839D02*
X4445Y4859D01*
X4465Y4839D01*
X4445Y4818D01*
X4425Y4839D01*
Y5099D02*
X4445Y5119D01*
X4465Y5099D01*
X4445Y5078D01*
X4425Y5099D01*
Y4579D02*
X4445Y4599D01*
X4465Y4579D01*
X4445Y4558D01*
X4425Y4579D01*
X5212Y5707D02*
X5222D01*
X5232Y5718D01*
X5243Y5707D01*
X5253D01*
Y5718D01*
X5243Y5728D01*
X5253Y5738D01*
Y5748D01*
X5243D01*
X5232Y5738D01*
X5222Y5748D01*
X5212D01*
Y5738D01*
X5222Y5728D01*
X5212Y5718D01*
Y5707D01*
X4958D02*
X4968D01*
X4978Y5718D01*
X4989Y5707D01*
X4999D01*
Y5718D01*
X4989Y5728D01*
X4999Y5738D01*
Y5748D01*
X4989D01*
X4978Y5738D01*
X4968Y5748D01*
X4958D01*
Y5738D01*
X4968Y5728D01*
X4958Y5718D01*
Y5707D01*
X6390Y6914D02*
Y6955D01*
X6431D01*
Y6914D01*
X6390D01*
X6650D02*
Y6955D01*
X6691D01*
Y6914D01*
X6650D01*
X7247Y8641D02*
Y8682D01*
X7288D01*
Y8641D01*
X7247D01*
X6987D02*
Y8682D01*
X7028D01*
Y8641D01*
X6987D01*
X6838Y9047D02*
Y9088D01*
X6878D01*
Y9047D01*
X6838D01*
X7092D02*
Y9088D01*
X7132D01*
Y9047D01*
X7092D01*
X7346D02*
Y9088D01*
X7386D01*
Y9047D01*
X7346D01*
X8057Y6457D02*
Y6497D01*
X8098D01*
Y6457D01*
X8057D01*
X7549D02*
Y6497D01*
X7590D01*
Y6457D01*
X7549D01*
X6749Y6063D02*
Y6104D01*
X6789D01*
Y6063D01*
X6749D01*
X7257D02*
Y6104D01*
X7297D01*
Y6063D01*
X7257D01*
X8585Y4031D02*
X8565Y4072D01*
X8606D01*
X8585Y4031D01*
Y3650D02*
X8565Y3691D01*
X8606D01*
X8585Y3650D01*
Y3269D02*
X8565Y3310D01*
X8606D01*
X8585Y3269D01*
X8666Y2624D02*
Y2665D01*
X8707D01*
Y2624D01*
X8666D01*
Y2364D02*
Y2405D01*
X8707D01*
Y2364D01*
X8666D01*
X8641Y1805D02*
Y1846D01*
X8682D01*
Y1805D01*
X8641D01*
Y2065D02*
Y2106D01*
X8682D01*
Y2065D01*
X8641D01*
X6647Y2469D02*
Y2510D01*
X6688D01*
Y2469D01*
X6647D01*
X6139D02*
Y2510D01*
X6180D01*
Y2469D01*
X6139D01*
X6241Y1859D02*
Y1900D01*
X6281D01*
Y1859D01*
X6241D01*
Y1351D02*
Y1392D01*
X6281D01*
Y1351D01*
X6241D01*
X7015Y1516D02*
Y1557D01*
X7056D01*
Y1516D01*
X7015D01*
Y1008D02*
Y1049D01*
X7056D01*
Y1008D01*
X7015D01*
X7689Y1026D02*
Y1067D01*
X7729D01*
Y1026D01*
X7689D01*
Y686D02*
Y727D01*
X7729D01*
Y686D01*
X7689D01*
X6546Y792D02*
Y833D01*
X6586D01*
Y792D01*
X6546D01*
X6206D02*
Y833D01*
X6246D01*
Y792D01*
X6206D01*
X5377Y2877D02*
Y2918D01*
X5418D01*
Y2877D01*
X5377D01*
X5387Y2888D02*
Y2908D01*
X5408D01*
Y2888D01*
X5387D01*
X5377Y993D02*
Y1034D01*
X5418D01*
Y993D01*
X5377D01*
X5387Y1004D02*
Y1024D01*
X5408D01*
Y1004D01*
X5387D01*
X4729Y2852D02*
Y2893D01*
X4770D01*
Y2852D01*
X4729D01*
X4740Y2862D02*
Y2883D01*
X4760D01*
Y2862D01*
X4740D01*
X4729Y968D02*
Y1009D01*
X4770D01*
Y968D01*
X4729D01*
X4740Y978D02*
Y999D01*
X4760D01*
Y978D01*
X4740D01*
X4094Y981D02*
Y1021D01*
X4135D01*
Y981D01*
X4094D01*
X4105Y991D02*
Y1011D01*
X4125D01*
Y991D01*
X4105D01*
X4094Y2865D02*
Y2905D01*
X4135D01*
Y2865D01*
X4094D01*
X4105Y2875D02*
Y2895D01*
X4125D01*
Y2875D01*
X4105D01*
X3472Y993D02*
Y1034D01*
X3513D01*
Y993D01*
X3472D01*
X3482Y1004D02*
Y1024D01*
X3503D01*
Y1004D01*
X3482D01*
X3472Y2877D02*
Y2918D01*
X3513D01*
Y2877D01*
X3472D01*
X3482Y2888D02*
Y2908D01*
X3503D01*
Y2888D01*
X3482D01*
X8585Y6012D02*
X8565Y6053D01*
X8606D01*
X8585Y6012D01*
Y5631D02*
X8565Y5672D01*
X8606D01*
X8585Y5631D01*
Y5250D02*
X8565Y5291D01*
X8606D01*
X8585Y5250D01*
X2647Y6660D02*
X2657D01*
X2667Y6670D01*
X2677Y6660D01*
X2687D01*
Y6670D01*
X2677Y6681D01*
X2687Y6691D01*
Y6701D01*
X2677D01*
X2667Y6691D01*
X2657Y6701D01*
X2647D01*
Y6691D01*
X2657Y6681D01*
X2647Y6670D01*
Y6660D01*
Y6431D02*
X2657D01*
X2667Y6441D01*
X2677Y6431D01*
X2687D01*
Y6441D01*
X2677Y6452D01*
X2687Y6462D01*
Y6472D01*
X2677D01*
X2667Y6462D01*
X2657Y6472D01*
X2647D01*
Y6462D01*
X2657Y6452D01*
X2647Y6441D01*
Y6431D01*
Y6202D02*
X2657D01*
X2667Y6212D01*
X2677Y6202D01*
X2687D01*
Y6212D01*
X2677Y6223D01*
X2687Y6233D01*
Y6243D01*
X2677D01*
X2667Y6233D01*
X2657Y6243D01*
X2647D01*
Y6233D01*
X2657Y6223D01*
X2647Y6212D01*
Y6202D01*
X5359Y335D02*
X5339Y376D01*
X5380D01*
X5359Y335D01*
X4978D02*
X4958Y376D01*
X4999D01*
X4978Y335D01*
X4254D02*
X4234Y376D01*
X4275D01*
X4254Y335D01*
X3874D02*
X3853Y376D01*
X3894D01*
X3874Y335D01*
X1194Y1300D02*
X1173Y1341D01*
X1214D01*
X1194Y1300D01*
Y1311D02*
X1184Y1331D01*
X1204D01*
X1194Y1311D01*
Y3002D02*
X1173Y3043D01*
X1214D01*
X1194Y3002D01*
Y3012D02*
X1184Y3033D01*
X1204D01*
X1194Y3012D01*
Y4704D02*
X1173Y4745D01*
X1214D01*
X1194Y4704D01*
Y4714D02*
X1184Y4735D01*
X1204D01*
X1194Y4714D01*
Y6406D02*
X1173Y6447D01*
X1214D01*
X1194Y6406D01*
Y6416D02*
X1184Y6436D01*
X1204D01*
X1194Y6416D01*
Y8108D02*
X1173Y8148D01*
X1214D01*
X1194Y8108D01*
Y8118D02*
X1184Y8138D01*
X1204D01*
X1194Y8118D01*
X8623Y437D02*
X8633Y447D01*
X8644D01*
X8633Y457D01*
X8644Y467D01*
X8633D01*
X8623Y478D01*
X8613Y467D01*
X8603D01*
X8613Y457D01*
X8603Y447D01*
X8613D01*
X8623Y437D01*
Y447D02*
X8628Y452D01*
X8633D01*
X8628Y457D01*
X8633Y462D01*
X8628D01*
X8623Y467D01*
X8618Y462D01*
X8613D01*
X8618Y457D01*
X8613Y452D01*
X8618D01*
X8623Y447D01*
X2957Y437D02*
X2967Y447D01*
X2978D01*
X2967Y457D01*
X2978Y467D01*
X2967D01*
X2957Y478D01*
X2947Y467D01*
X2937D01*
X2947Y457D01*
X2937Y447D01*
X2947D01*
X2957Y437D01*
Y447D02*
X2962Y452D01*
X2967D01*
X2962Y457D01*
X2967Y462D01*
X2962D01*
X2957Y467D01*
X2952Y462D01*
X2947D01*
X2952Y457D01*
X2947Y452D01*
X2952D01*
X2957Y447D01*
Y8920D02*
X2967Y8931D01*
X2978D01*
X2967Y8941D01*
X2978Y8951D01*
X2967D01*
X2957Y8961D01*
X2947Y8951D01*
X2937D01*
X2947Y8941D01*
X2937Y8931D01*
X2947D01*
X2957Y8920D01*
Y8931D02*
X2962Y8936D01*
X2967D01*
X2962Y8941D01*
X2967Y8946D01*
X2962D01*
X2957Y8951D01*
X2952Y8946D01*
X2947D01*
X2952Y8941D01*
X2947Y8936D01*
X2952D01*
X2957Y8931D01*
X8623Y8920D02*
X8633Y8931D01*
X8644D01*
X8633Y8941D01*
X8644Y8951D01*
X8633D01*
X8623Y8961D01*
X8613Y8951D01*
X8603D01*
X8613Y8941D01*
X8603Y8931D01*
X8613D01*
X8623Y8920D01*
Y8931D02*
X8628Y8936D01*
X8633D01*
X8628Y8941D01*
X8633Y8946D01*
X8628D01*
X8623Y8951D01*
X8618Y8946D01*
X8613D01*
X8618Y8941D01*
X8613Y8936D01*
X8618D01*
X8623Y8931D01*
X6819Y7506D02*
X6839Y7526D01*
X6860Y7506D01*
X6839Y7485D01*
X6819Y7506D01*
X7339D02*
X7359Y7526D01*
X7380Y7506D01*
X7359Y7485D01*
X7339Y7506D01*
X7079D02*
X7099Y7526D01*
X7120Y7506D01*
X7099Y7485D01*
X7079Y7506D01*
X7158Y7240D02*
X7168Y7261D01*
X7158Y7281D01*
X7178Y7271D01*
X7199Y7281D01*
X7189Y7261D01*
X7199Y7240D01*
X7178Y7251D01*
X7158Y7240D01*
X7168Y7251D02*
X7173Y7261D01*
X7168Y7271D01*
X7178Y7266D01*
X7189Y7271D01*
X7184Y7261D01*
X7189Y7251D01*
X7178Y7256D01*
X7168Y7251D01*
X6952Y6647D02*
X6962Y6668D01*
X6952Y6688D01*
X6972Y6678D01*
X6993Y6688D01*
X6982Y6668D01*
X6993Y6647D01*
X6972Y6657D01*
X6952Y6647D01*
X6962Y6657D02*
X6967Y6668D01*
X6962Y6678D01*
X6972Y6673D01*
X6982Y6678D01*
X6977Y6668D01*
X6982Y6657D01*
X6972Y6662D01*
X6962Y6657D01*
X7117Y5441D02*
X7127Y5461D01*
X7117Y5481D01*
X7137Y5471D01*
X7158Y5481D01*
X7148Y5461D01*
X7158Y5441D01*
X7137Y5451D01*
X7117Y5441D01*
X7127Y5451D02*
X7132Y5461D01*
X7127Y5471D01*
X7137Y5466D01*
X7148Y5471D01*
X7142Y5461D01*
X7148Y5451D01*
X7137Y5456D01*
X7127Y5451D01*
X6637Y5020D02*
X6647Y5040D01*
X6637Y5060D01*
X6657Y5050D01*
X6678Y5060D01*
X6668Y5040D01*
X6678Y5020D01*
X6657Y5030D01*
X6637Y5020D01*
X6647Y5030D02*
X6652Y5040D01*
X6647Y5050D01*
X6657Y5045D01*
X6668Y5050D01*
X6663Y5040D01*
X6668Y5030D01*
X6657Y5035D01*
X6647Y5030D01*
X8070Y3447D02*
X8080Y3467D01*
X8070Y3487D01*
X8090Y3477D01*
X8110Y3487D01*
X8100Y3467D01*
X8110Y3447D01*
X8090Y3457D01*
X8070Y3447D01*
X8080Y3457D02*
X8085Y3467D01*
X8080Y3477D01*
X8090Y3472D01*
X8100Y3477D01*
X8095Y3467D01*
X8100Y3457D01*
X8090Y3462D01*
X8080Y3457D01*
X6076Y3142D02*
X6086Y3162D01*
X6076Y3183D01*
X6096Y3172D01*
X6116Y3183D01*
X6106Y3162D01*
X6116Y3142D01*
X6096Y3152D01*
X6076Y3142D01*
X6086Y3152D02*
X6091Y3162D01*
X6086Y3172D01*
X6096Y3167D01*
X6106Y3172D01*
X6101Y3162D01*
X6106Y3152D01*
X6096Y3157D01*
X6086Y3152D01*
X6457Y5390D02*
X6467Y5410D01*
X6457Y5431D01*
X6477Y5420D01*
X6497Y5431D01*
X6487Y5410D01*
X6497Y5390D01*
X6477Y5400D01*
X6457Y5390D01*
X6467Y5400D02*
X6472Y5410D01*
X6467Y5420D01*
X6477Y5415D01*
X6487Y5420D01*
X6482Y5410D01*
X6487Y5400D01*
X6477Y5405D01*
X6467Y5400D01*
X5872Y7930D02*
X5883Y7950D01*
X5872Y7971D01*
X5893Y7960D01*
X5913Y7971D01*
X5903Y7950D01*
X5913Y7930D01*
X5893Y7940D01*
X5872Y7930D01*
X5883Y7940D02*
X5888Y7950D01*
X5883Y7960D01*
X5893Y7955D01*
X5903Y7960D01*
X5898Y7950D01*
X5903Y7940D01*
X5893Y7945D01*
X5883Y7940D01*
X7003Y8044D02*
X7013Y8064D01*
X7003Y8085D01*
X7023Y8075D01*
X7043Y8085D01*
X7033Y8064D01*
X7043Y8044D01*
X7023Y8054D01*
X7003Y8044D01*
X7013Y8054D02*
X7018Y8064D01*
X7013Y8075D01*
X7023Y8070D01*
X7033Y8075D01*
X7028Y8064D01*
X7033Y8054D01*
X7023Y8059D01*
X7013Y8054D01*
X7066Y6888D02*
X7076Y6909D01*
X7066Y6929D01*
X7087Y6919D01*
X7107Y6929D01*
X7097Y6909D01*
X7107Y6888D01*
X7087Y6899D01*
X7066Y6888D01*
X7076Y6899D02*
X7082Y6909D01*
X7076Y6919D01*
X7087Y6914D01*
X7097Y6919D01*
X7092Y6909D01*
X7097Y6899D01*
X7087Y6904D01*
X7076Y6899D01*
X5110Y8260D02*
X5121Y8280D01*
X5110Y8301D01*
X5131Y8291D01*
X5151Y8301D01*
X5141Y8280D01*
X5151Y8260D01*
X5131Y8270D01*
X5110Y8260D01*
X5121Y8270D02*
X5126Y8280D01*
X5121Y8291D01*
X5131Y8285D01*
X5141Y8291D01*
X5136Y8280D01*
X5141Y8270D01*
X5131Y8275D01*
X5121Y8270D01*
D83*
X4669Y8103D02*
G03*
X4669Y8103I-20J0D01*
G01*
Y9119D02*
G03*
X4669Y9119I-20J0D01*
G01*
X2725Y2375D02*
G03*
X2725Y2375I-20J0D01*
G01*
Y3391D02*
G03*
X2725Y3391I-20J0D01*
G01*
X3170Y4991D02*
G03*
X3170Y4991I-20J0D01*
G01*
Y3975D02*
G03*
X3170Y3975I-20J0D01*
G01*
X3183Y5359D02*
G03*
X3183Y5359I-20J0D01*
G01*
Y6375D02*
G03*
X3183Y6375I-20J0D01*
G01*
X4529Y5486D02*
G03*
X4529Y5486I-20J0D01*
G01*
Y6502D02*
G03*
X4529Y6502I-20J0D01*
G01*
X6180Y5334D02*
G03*
X6180Y5334I-20J0D01*
G01*
Y6350D02*
G03*
X6180Y6350I-20J0D01*
G01*
X5748Y5334D02*
G03*
X5748Y5334I-20J0D01*
G01*
Y6350D02*
G03*
X5748Y6350I-20J0D01*
G01*
X5431Y6756D02*
G03*
X5431Y6756I-20J0D01*
G01*
Y7772D02*
G03*
X5431Y7772I-20J0D01*
G01*
X6180Y6934D02*
G03*
X6180Y6934I-20J0D01*
G01*
Y7950D02*
G03*
X6180Y7950I-20J0D01*
G01*
X8326Y7938D02*
G03*
X8326Y7938I-20J0D01*
G01*
Y6921D02*
G03*
X8326Y6921I-20J0D01*
G01*
X8758Y6934D02*
G03*
X8758Y6934I-20J0D01*
G01*
Y7950D02*
G03*
X8758Y7950I-20J0D01*
G01*
X7437Y4686D02*
G03*
X7437Y4686I-20J0D01*
G01*
X8453D02*
G03*
X8453Y4686I-20J0D01*
G01*
X6713Y3162D02*
G03*
X6713Y3162I-20J0D01*
G01*
Y4178D02*
G03*
X6713Y4178I-20J0D01*
G01*
X7272Y4153D02*
G03*
X7272Y4153I-20J0D01*
G01*
Y3137D02*
G03*
X7272Y3137I-20J0D01*
G01*
X7831Y3150D02*
G03*
X7831Y3150I-20J0D01*
G01*
Y4166D02*
G03*
X7831Y4166I-20J0D01*
G01*
X8237Y2553D02*
G03*
X8237Y2553I-20J0D01*
G01*
Y1537D02*
G03*
X8237Y1537I-20J0D01*
G01*
X7818Y1524D02*
G03*
X7818Y1524I-20J0D01*
G01*
Y2540D02*
G03*
X7818Y2540I-20J0D01*
G01*
X7323Y229D02*
G03*
X7323Y229I-20J0D01*
G01*
X6307D02*
G03*
X6307Y229I-20J0D01*
G01*
X7374Y2527D02*
G03*
X7374Y2527I-20J0D01*
G01*
Y1511D02*
G03*
X7374Y1511I-20J0D01*
G01*
X2738Y1867D02*
G03*
X2738Y1867I-20J0D01*
G01*
Y1613D02*
G03*
X2738Y1613I-20J0D01*
G01*
Y1359D02*
G03*
X2738Y1359I-20J0D01*
G01*
D84*
X2728Y1867D02*
G03*
X2728Y1867I-10J0D01*
G01*
Y1613D02*
G03*
X2728Y1613I-10J0D01*
G01*
Y1359D02*
G03*
X2728Y1359I-10J0D01*
G01*
M02*
