G04*
G04 #@! TF.GenerationSoftware,Altium Limited,Altium Designer,20.0.13 (296)*
G04*
G04 Layer_Color=255*
%FSLAX42Y42*%
%MOMM*%
G71*
G01*
G75*
G04:AMPARAMS|DCode=22|XSize=0.65mm|YSize=1.65mm|CornerRadius=0.05mm|HoleSize=0mm|Usage=FLASHONLY|Rotation=0.000|XOffset=0mm|YOffset=0mm|HoleType=Round|Shape=RoundedRectangle|*
%AMROUNDEDRECTD22*
21,1,0.65,1.55,0,0,0.0*
21,1,0.55,1.65,0,0,0.0*
1,1,0.10,0.28,-0.78*
1,1,0.10,-0.28,-0.78*
1,1,0.10,-0.28,0.78*
1,1,0.10,0.28,0.78*
%
%ADD22ROUNDEDRECTD22*%
G04:AMPARAMS|DCode=23|XSize=0.65mm|YSize=1.65mm|CornerRadius=0.05mm|HoleSize=0mm|Usage=FLASHONLY|Rotation=90.000|XOffset=0mm|YOffset=0mm|HoleType=Round|Shape=RoundedRectangle|*
%AMROUNDEDRECTD23*
21,1,0.65,1.55,0,0,90.0*
21,1,0.55,1.65,0,0,90.0*
1,1,0.10,0.78,0.28*
1,1,0.10,0.78,-0.28*
1,1,0.10,-0.78,-0.28*
1,1,0.10,-0.78,0.28*
%
%ADD23ROUNDEDRECTD23*%
%ADD54C,1.50*%
%ADD55O,1.20X1.60*%
%ADD56C,2.54*%
G04:AMPARAMS|DCode=57|XSize=2.54mm|YSize=2.54mm|CornerRadius=0.32mm|HoleSize=0mm|Usage=FLASHONLY|Rotation=90.000|XOffset=0mm|YOffset=0mm|HoleType=Round|Shape=RoundedRectangle|*
%AMROUNDEDRECTD57*
21,1,2.54,1.91,0,0,90.0*
21,1,1.91,2.54,0,0,90.0*
1,1,0.64,0.95,0.95*
1,1,0.64,0.95,-0.95*
1,1,0.64,-0.95,-0.95*
1,1,0.64,-0.95,0.95*
%
%ADD57ROUNDEDRECTD57*%
%ADD58C,1.55*%
%ADD59R,2.10X2.10*%
%ADD60C,2.10*%
%ADD61O,2.40X2.00*%
%ADD62C,2.00*%
%ADD63C,1.40*%
%ADD64R,1.40X1.40*%
%ADD65C,1.60*%
%ADD66C,1.30*%
%ADD67R,1.30X1.30*%
G04:AMPARAMS|DCode=68|XSize=2.54mm|YSize=2.54mm|CornerRadius=0.32mm|HoleSize=0mm|Usage=FLASHONLY|Rotation=180.000|XOffset=0mm|YOffset=0mm|HoleType=Round|Shape=RoundedRectangle|*
%AMROUNDEDRECTD68*
21,1,2.54,1.91,0,0,180.0*
21,1,1.91,2.54,0,0,180.0*
1,1,0.64,-0.95,0.95*
1,1,0.64,0.95,0.95*
1,1,0.64,0.95,-0.95*
1,1,0.64,-0.95,-0.95*
%
%ADD68ROUNDEDRECTD68*%
%ADD69O,1.60X1.20*%
%ADD70C,2.80*%
%ADD71R,2.80X2.80*%
%ADD72R,1.60X1.60*%
%ADD73R,1.70X1.70*%
%ADD74C,1.70*%
%ADD75R,14.00X14.00*%
%ADD76C,8.00*%
%ADD77R,1.40X1.40*%
D22*
X7226Y7064D02*
D03*
X7099D02*
D03*
X6972D02*
D03*
X6845D02*
D03*
X7226Y6499D02*
D03*
X7099D02*
D03*
X6972D02*
D03*
X6845D02*
D03*
D23*
X6791Y8318D02*
D03*
Y8192D02*
D03*
Y8064D02*
D03*
Y7938D02*
D03*
X7356Y8318D02*
D03*
Y8192D02*
D03*
Y8064D02*
D03*
Y7938D02*
D03*
X6741Y5588D02*
D03*
Y5461D02*
D03*
Y5334D02*
D03*
Y5207D02*
D03*
X7306Y5588D02*
D03*
Y5461D02*
D03*
Y5334D02*
D03*
Y5207D02*
D03*
D54*
X6157Y8915D02*
D03*
X5817D02*
D03*
X2667Y7811D02*
D03*
Y7303D02*
D03*
X8077Y6477D02*
D03*
X7569D02*
D03*
X6769Y6083D02*
D03*
X7277D02*
D03*
X6668Y2489D02*
D03*
X6160D02*
D03*
X6261Y1880D02*
D03*
Y1372D02*
D03*
X7036Y1537D02*
D03*
Y1029D02*
D03*
X7709Y1046D02*
D03*
Y706D02*
D03*
X6566Y813D02*
D03*
X6226D02*
D03*
D55*
X5140Y9131D02*
D03*
X5401D02*
D03*
X6410Y6934D02*
D03*
X6671D02*
D03*
X7267Y8661D02*
D03*
X7007D02*
D03*
D56*
X3696Y9042D02*
D03*
X8585Y3670D02*
D03*
Y3289D02*
D03*
Y5651D02*
D03*
Y5271D02*
D03*
X5359Y356D02*
D03*
X4254D02*
D03*
D57*
X4077Y9042D02*
D03*
X4978Y356D02*
D03*
X3874D02*
D03*
D58*
X4198Y8103D02*
D03*
X3244D02*
D03*
D59*
X2603Y4254D02*
D03*
D60*
Y4799D02*
D03*
Y5344D02*
D03*
D61*
X3785Y4116D02*
D03*
Y7175D02*
D03*
D62*
X5144Y4204D02*
D03*
X5906D02*
D03*
D63*
X4445Y4839D02*
D03*
Y5099D02*
D03*
X7359Y7506D02*
D03*
X7099D02*
D03*
D64*
X4445Y4579D02*
D03*
D65*
X5232Y5728D02*
D03*
X4978D02*
D03*
X2667Y6681D02*
D03*
Y6452D02*
D03*
D66*
X6858Y9068D02*
D03*
X7112D02*
D03*
D67*
X7366D02*
D03*
D68*
X8585Y4051D02*
D03*
Y6033D02*
D03*
D69*
X8687Y2645D02*
D03*
Y2385D02*
D03*
X8661Y1826D02*
D03*
Y2086D02*
D03*
D70*
X5397Y2898D02*
D03*
X4750Y2872D02*
D03*
X4115Y1001D02*
D03*
X3492Y1014D02*
D03*
D71*
X5397D02*
D03*
X4750Y988D02*
D03*
X4115Y2885D02*
D03*
X3492Y2898D02*
D03*
D72*
X2667Y6223D02*
D03*
D73*
X2718Y1867D02*
D03*
D74*
Y1613D02*
D03*
Y1359D02*
D03*
D75*
X1194Y1321D02*
D03*
Y3023D02*
D03*
Y4724D02*
D03*
Y6426D02*
D03*
Y8128D02*
D03*
D76*
X8623Y457D02*
D03*
X2957D02*
D03*
Y8941D02*
D03*
X8623D02*
D03*
D77*
X6839Y7506D02*
D03*
M02*
