G04*
G04 #@! TF.GenerationSoftware,Altium Limited,Altium Designer,20.0.13 (296)*
G04*
G04 Layer_Physical_Order=1*
G04 Layer_Color=255*
%FSLAX42Y42*%
%MOMM*%
G71*
G01*
G75*
G04:AMPARAMS|DCode=22|XSize=0.65mm|YSize=1.65mm|CornerRadius=0.05mm|HoleSize=0mm|Usage=FLASHONLY|Rotation=0.000|XOffset=0mm|YOffset=0mm|HoleType=Round|Shape=RoundedRectangle|*
%AMROUNDEDRECTD22*
21,1,0.65,1.55,0,0,0.0*
21,1,0.55,1.65,0,0,0.0*
1,1,0.10,0.28,-0.78*
1,1,0.10,-0.28,-0.78*
1,1,0.10,-0.28,0.78*
1,1,0.10,0.28,0.78*
%
%ADD22ROUNDEDRECTD22*%
G04:AMPARAMS|DCode=23|XSize=0.65mm|YSize=1.65mm|CornerRadius=0.05mm|HoleSize=0mm|Usage=FLASHONLY|Rotation=90.000|XOffset=0mm|YOffset=0mm|HoleType=Round|Shape=RoundedRectangle|*
%AMROUNDEDRECTD23*
21,1,0.65,1.55,0,0,90.0*
21,1,0.55,1.65,0,0,90.0*
1,1,0.10,0.78,0.28*
1,1,0.10,0.78,-0.28*
1,1,0.10,-0.78,-0.28*
1,1,0.10,-0.78,0.28*
%
%ADD23ROUNDEDRECTD23*%
%ADD52C,0.41*%
%ADD53C,0.45*%
%ADD54C,1.50*%
%ADD55O,1.20X1.60*%
%ADD56C,2.54*%
G04:AMPARAMS|DCode=57|XSize=2.54mm|YSize=2.54mm|CornerRadius=0.32mm|HoleSize=0mm|Usage=FLASHONLY|Rotation=90.000|XOffset=0mm|YOffset=0mm|HoleType=Round|Shape=RoundedRectangle|*
%AMROUNDEDRECTD57*
21,1,2.54,1.91,0,0,90.0*
21,1,1.91,2.54,0,0,90.0*
1,1,0.64,0.95,0.95*
1,1,0.64,0.95,-0.95*
1,1,0.64,-0.95,-0.95*
1,1,0.64,-0.95,0.95*
%
%ADD57ROUNDEDRECTD57*%
%ADD58C,1.55*%
%ADD59R,2.10X2.10*%
%ADD60C,2.10*%
%ADD61O,2.40X2.00*%
%ADD62C,2.00*%
%ADD63C,1.40*%
%ADD64R,1.40X1.40*%
%ADD65C,1.60*%
%ADD66C,1.30*%
%ADD67R,1.30X1.30*%
G04:AMPARAMS|DCode=68|XSize=2.54mm|YSize=2.54mm|CornerRadius=0.32mm|HoleSize=0mm|Usage=FLASHONLY|Rotation=180.000|XOffset=0mm|YOffset=0mm|HoleType=Round|Shape=RoundedRectangle|*
%AMROUNDEDRECTD68*
21,1,2.54,1.91,0,0,180.0*
21,1,1.91,2.54,0,0,180.0*
1,1,0.64,-0.95,0.95*
1,1,0.64,0.95,0.95*
1,1,0.64,0.95,-0.95*
1,1,0.64,-0.95,-0.95*
%
%ADD68ROUNDEDRECTD68*%
%ADD69O,1.60X1.20*%
%ADD70C,2.80*%
%ADD71R,2.80X2.80*%
%ADD72R,1.60X1.60*%
%ADD73R,1.70X1.70*%
%ADD74C,1.70*%
%ADD75R,14.00X14.00*%
%ADD76C,8.00*%
%ADD77R,1.40X1.40*%
%ADD78C,1.27*%
D22*
X7226Y7064D02*
D03*
X7099D02*
D03*
X6972D02*
D03*
X6845D02*
D03*
X7226Y6499D02*
D03*
X7099D02*
D03*
X6972D02*
D03*
X6845D02*
D03*
D23*
X6791Y8318D02*
D03*
Y8192D02*
D03*
Y8064D02*
D03*
Y7938D02*
D03*
X7356Y8318D02*
D03*
Y8192D02*
D03*
Y8064D02*
D03*
Y7938D02*
D03*
X6741Y5588D02*
D03*
Y5461D02*
D03*
Y5334D02*
D03*
Y5207D02*
D03*
X7306Y5588D02*
D03*
Y5461D02*
D03*
Y5334D02*
D03*
Y5207D02*
D03*
D52*
X8773Y3681D02*
G03*
X8749Y3763I-188J-10D01*
G01*
X2438Y5359D02*
G03*
X2441Y5310I165J-15D01*
G01*
X7378Y9193D02*
X7452Y9183D01*
X7112Y9068D02*
X7280Y9183D01*
X7356Y9193D01*
X7376D01*
X7378Y9193D01*
X7595Y8128D02*
X7657Y8748D01*
X7657Y8750D01*
Y8765D01*
X7481Y9154D02*
X7657Y8765D01*
X7452Y9183D02*
X7481Y9154D01*
X7489Y8014D02*
X7585Y8118D01*
X7595Y8128D01*
X7356Y7938D02*
X7457Y7982D01*
X7489Y8014D01*
X7224Y7887D02*
X7359Y7506D01*
X7457Y8109D02*
X7489Y8141D01*
X7502Y8306D01*
X7500Y8336D02*
X7502Y8330D01*
Y8306D02*
Y8330D01*
X7356Y8064D02*
X7457Y8109D01*
X7489Y8369D02*
X7500Y8336D01*
X7224Y8115D02*
X7256Y8147D01*
X7356Y8192D01*
X7267Y8661D02*
X7489Y8369D01*
X7224Y7887D02*
Y8115D01*
X7099Y6499D02*
X7309Y6964D01*
X7049Y7197D02*
X7178Y7261D01*
X7309Y6964D02*
X7359Y7506D01*
X7016Y7165D02*
X7049Y7197D01*
X6972Y7064D02*
X7016Y7165D01*
X6410Y6934D02*
X6625Y6804D01*
X6972Y6668D01*
Y6499D02*
Y6668D01*
X7392Y5778D02*
X7438Y5638D01*
X7277Y6083D02*
X7391Y5779D01*
X7392Y5778D01*
X7406Y5378D02*
X7438Y5411D01*
X7306Y5334D02*
X7406Y5378D01*
X7438Y5411D02*
Y5638D01*
X7137Y5461D02*
X7306D01*
X7099Y6499D02*
X7137Y5461D01*
X7417Y4686D02*
X7438Y5157D01*
Y5257D01*
X7406Y5290D02*
X7438Y5257D01*
X7306Y5334D02*
X7406Y5290D01*
X6741Y5461D02*
X6841Y5505D01*
X6873Y5538D01*
Y5638D01*
X6769Y6083D02*
X6873Y5638D01*
X6691Y8401D02*
X6744Y8445D01*
X6744Y8446D01*
X7007Y8661D01*
X6691Y8236D02*
X6791Y8192D01*
X6659Y8268D02*
X6691Y8236D01*
X6659Y8268D02*
Y8369D01*
X6691Y8401D01*
X6791Y8318D02*
X7058Y8520D01*
X7128Y8591D01*
X5906Y4204D02*
X6657Y5040D01*
X5906Y4204D02*
X8090Y3467D01*
X6741Y5207D02*
X7252Y4153D01*
X7766Y4059D02*
X8585Y4051D01*
X7252Y4153D02*
X7766Y4059D01*
X6693Y3162D02*
X7208Y3244D01*
X8585Y3289D01*
X6115Y7041D02*
X6222Y7112D01*
X6223Y7112D01*
X6708Y7410D01*
X6053Y6978D02*
X6115Y7041D01*
X5488Y5982D02*
Y5997D01*
X5621Y6394D01*
X5488Y5982D02*
X5489Y5979D01*
X5745Y4137D01*
X5621Y6394D02*
X6053Y6978D01*
X5745Y4137D02*
X6096Y3162D01*
X5397Y2898D02*
X7296Y3030D01*
X7811Y3150D01*
X6477Y5410D02*
X6741Y5334D01*
X6160D02*
X6741Y5207D01*
X3162Y5359D02*
X4464Y6609D01*
X5893Y7950D01*
X6791Y8064D02*
X7023D01*
X7087Y6909D02*
X7099Y7064D01*
X8199Y6966D02*
X8738Y7950D01*
X8077Y6477D02*
X8199Y6966D01*
X8687Y2385D02*
X8828Y2594D01*
X8585Y4051D02*
X8749Y3763D01*
X8773Y3681D02*
X8828Y2695D01*
Y2594D02*
Y2695D01*
X4648Y8103D02*
X5131Y8280D01*
X3150Y4991D02*
X4508Y5486D01*
X3785Y4116D02*
X4445Y5099D01*
X6708Y7410D02*
Y7601D01*
X6791Y7938D01*
X6708Y7410D02*
X6845Y7064D01*
X7146Y8732D02*
X7366Y9068D01*
X7128Y8591D02*
X7146Y8732D01*
X3864Y9184D02*
X3943Y9230D01*
X3696Y9042D02*
X3861Y9182D01*
X3864Y9184D01*
X5747Y8783D02*
X5760Y8779D01*
X4648Y9119D02*
X5747Y8783D01*
X5090Y9272D02*
X5191D01*
X5760Y8779D02*
X5764Y8779D01*
X7007Y8661D01*
X5191Y9272D02*
X5401Y9131D01*
X3943Y9230D02*
X5090Y9272D01*
X2680Y5577D02*
X2808Y6117D01*
X2680Y5575D02*
X2680Y5577D01*
X2603Y5344D02*
X2680Y5575D01*
X2808Y6117D02*
Y6739D01*
X2667Y7811D02*
X2803Y7359D01*
X2808Y6739D01*
X2562Y6364D02*
X2667Y6452D01*
X2441Y5310D02*
X2513Y4971D01*
X2526Y6328D02*
X2562Y6364D01*
X2438Y5359D02*
X2526Y6328D01*
X2513Y4971D02*
X2515Y4966D01*
X2603Y4799D01*
X6160Y6350D02*
X6769Y6083D01*
X2705Y2375D02*
X4280Y2684D01*
X4750Y2872D01*
X2705Y3391D02*
X2769Y4124D01*
Y4385D01*
X2603Y4799D02*
X2769Y4385D01*
X6261Y1880D02*
X7036Y1029D01*
D53*
X236Y9202D02*
X337D01*
X287D01*
Y9050D01*
X464Y9202D02*
X414D01*
X388Y9177D01*
Y9075D01*
X414Y9050D01*
X464D01*
X490Y9075D01*
Y9177D01*
X464Y9202D01*
X541Y9050D02*
Y9202D01*
X617D01*
X642Y9177D01*
Y9126D01*
X617Y9100D01*
X541D01*
D54*
X6157Y8915D02*
D03*
X5817D02*
D03*
X2667Y7811D02*
D03*
Y7303D02*
D03*
X8077Y6477D02*
D03*
X7569D02*
D03*
X6769Y6083D02*
D03*
X7277D02*
D03*
X6668Y2489D02*
D03*
X6160D02*
D03*
X6261Y1880D02*
D03*
Y1372D02*
D03*
X7036Y1537D02*
D03*
Y1029D02*
D03*
X7709Y1046D02*
D03*
Y706D02*
D03*
X6566Y813D02*
D03*
X6226D02*
D03*
D55*
X5140Y9131D02*
D03*
X5401D02*
D03*
X6410Y6934D02*
D03*
X6671D02*
D03*
X7267Y8661D02*
D03*
X7007D02*
D03*
D56*
X3696Y9042D02*
D03*
X8585Y3670D02*
D03*
Y3289D02*
D03*
Y5651D02*
D03*
Y5271D02*
D03*
X5359Y356D02*
D03*
X4254D02*
D03*
D57*
X4077Y9042D02*
D03*
X4978Y356D02*
D03*
X3874D02*
D03*
D58*
X4198Y8103D02*
D03*
X3244D02*
D03*
D59*
X2603Y4254D02*
D03*
D60*
Y4799D02*
D03*
Y5344D02*
D03*
D61*
X3785Y4116D02*
D03*
Y7175D02*
D03*
D62*
X5144Y4204D02*
D03*
X5906D02*
D03*
D63*
X4445Y4839D02*
D03*
Y5099D02*
D03*
X7359Y7506D02*
D03*
X7099D02*
D03*
D64*
X4445Y4579D02*
D03*
D65*
X5232Y5728D02*
D03*
X4978D02*
D03*
X2667Y6681D02*
D03*
Y6452D02*
D03*
D66*
X6858Y9068D02*
D03*
X7112D02*
D03*
D67*
X7366D02*
D03*
D68*
X8585Y4051D02*
D03*
Y6033D02*
D03*
D69*
X8687Y2645D02*
D03*
Y2385D02*
D03*
X8661Y1826D02*
D03*
Y2086D02*
D03*
D70*
X5397Y2898D02*
D03*
X4750Y2872D02*
D03*
X4115Y1001D02*
D03*
X3492Y1014D02*
D03*
D71*
X5397D02*
D03*
X4750Y988D02*
D03*
X4115Y2885D02*
D03*
X3492Y2898D02*
D03*
D72*
X2667Y6223D02*
D03*
D73*
X2718Y1867D02*
D03*
D74*
Y1613D02*
D03*
Y1359D02*
D03*
D75*
X1194Y1321D02*
D03*
Y3023D02*
D03*
Y4724D02*
D03*
Y6426D02*
D03*
Y8128D02*
D03*
D76*
X8623Y457D02*
D03*
X2957D02*
D03*
Y8941D02*
D03*
X8623D02*
D03*
D77*
X6839Y7506D02*
D03*
D78*
X7178Y7261D02*
D03*
X6972Y6668D02*
D03*
X7137Y5461D02*
D03*
X6657Y5040D02*
D03*
X8090Y3467D02*
D03*
X6096Y3162D02*
D03*
X6477Y5410D02*
D03*
X5893Y7950D02*
D03*
X7023Y8064D02*
D03*
X7087Y6909D02*
D03*
X5131Y8280D02*
D03*
M02*
