M48
;Layer_Color=9474304
;FILE_FORMAT=2:5
INCH,LZ
;TYPE=PLATED
T1F00S00C0.02800
T2F00S00C0.03346
T3F00S00C0.03543
T4F00S00C0.03937
T5F00S00C0.12598
%
T01
X003937Y011811
X0049213Y0108268
T02
X0037402Y0105984
X0076772
X0088583
X0127953
X0139764
Y0079055
X0151575
Y0039055
X0139764
Y0145984
X0127953
X0088583
X0076772
X0037402
X0025591
Y0105984
T03
X0190945Y0107953
Y0117953
Y0127953
Y0137953
Y0147953
X0161417Y0143701
X0156417
X0151417
X0110236
X0105236
X0100236
X0059055
X0054055
X0049055
X0029685Y0163386
X0163228Y0076772
X0168228
X0173228
X0009843Y0107953
Y0117953
Y0127953
Y0137953
Y0147953
X0019685Y0163386
T04
X007811Y019685
Y0222441
X015811
Y019685
T05
X0021654Y0019685
X0179134Y0017717
M30
